<svg width="963" height="502" viewBox="0 0 963 502" fill="none" xmlns="http://www.w3.org/2000/svg">
<path d="M161.584 231.564C171.962 229.118 182.447 226.879 192.959 224.721C202.533 222.834 209.457 221.281 217.505 219.873C215.911 221.019 214.304 222.166 212.724 223.321C209.181 225.654 206.098 228.285 203.551 231.149C201.918 232.664 200.497 234.278 199.306 235.97C196.628 240.547 193.722 245.061 192.705 249.973C191.967 251.841 191.421 253.741 191.071 255.66C190.227 262.63 189.504 270.349 191.218 277.012C192.008 281.679 193.813 286.242 196.575 290.554C197.365 293.362 199.895 295.583 202.105 297.921C202.992 299.193 204.177 300.36 205.613 301.379C208.747 303.031 211.532 305.053 214.987 306.435C218.308 307.527 222.057 307.87 225.566 308.601C229.451 308.952 233.384 308.991 237.283 308.719C251.034 307.796 264.485 305.426 277.148 301.695C275.554 303.365 273.987 305.026 272.394 306.687C269.73 309.414 267.375 312.272 265.35 315.237C262.672 320.067 259.699 324.861 257.128 329.727C255.213 335.009 253.767 340.363 252.026 345.671C250.593 351.991 250.687 358.401 249.911 364.757C250.071 370.787 250.861 376.818 251.584 382.813C252.923 388.519 254.785 394.188 256.82 399.804C259.156 404.52 261.86 409.149 264.922 413.671C268.229 417.454 271.832 421.115 275.715 424.64C279.732 427.232 284.111 429.452 288.249 431.863C293.257 434.707 300.153 434.942 306.179 436.269C315.191 437.551 324.07 434.562 332.774 433.289C341.478 432.016 348.843 428.775 356.315 425.913C365.459 422.383 374.323 418.531 382.869 414.375C400.897 405.581 418.135 396.073 434.491 385.901C449.315 376.448 463.228 366.391 476.954 356.216C470.084 362.942 463.563 369.84 456.988 376.683C453.244 380.534 450.102 384.637 447.614 388.925C445.378 392.861 443.048 396.78 440.919 400.734C439.218 404.341 437.876 408.021 436.902 411.748C434.063 419.097 433.822 426.681 433.099 434.219C433.099 439.411 434.049 444.584 434.438 449.766C435.308 455.038 437.464 460.184 438.991 465.385C441.239 470.041 443.876 474.607 446.891 479.062C450.346 482.674 453.453 486.42 457.524 489.706C459.876 491.325 462.391 492.833 465.049 494.221C467.587 495.843 470.375 497.278 473.365 498.5C477.61 499.944 482.391 500.468 486.944 501.344C488.786 501.663 490.669 501.865 492.568 501.949C500.9 502.178 509.24 501.638 517.354 500.342C531.242 498.031 544.861 495.041 558.103 491.395C596.007 480.743 631.483 466.527 663.476 449.17C675.446 442.597 686.508 435.305 696.525 427.385C701.516 423.42 706.209 419.289 710.586 415.007L709.996 415.63C714.63 411.225 718.968 406.674 723.253 402.088C736.042 388.345 746.737 373.766 755.177 358.572C766.345 339.333 775.719 318.632 772.278 297.768C771.22 320.085 752.191 339.252 731.81 355.81C714.402 368.675 710.05 371.031 692.976 379.283C679.92 385.549 665.19 389.855 650.42 393.872C622.848 400.951 615.898 401.727 599.534 404.499C586.425 406.386 573.248 408.336 560.004 409.916C571.44 401.366 582.769 392.762 594.125 384.176C615.845 367.682 637.632 351.205 657.892 333.88C666.873 326.188 675.287 318.219 683.134 309.974C692.682 300.043 702.31 290.175 710.398 279.684C717.203 270.764 723.161 261.56 728.235 252.13C731.77 246.018 735.292 239.915 738.157 233.65C743.032 223.637 746.031 213.255 748.776 202.9C749.794 197.925 750.209 192.924 750.691 187.922C751.26 184.197 751.514 180.453 751.455 176.709C750.839 171.202 750.504 165.686 749.727 160.197C748.38 154.751 746.628 149.354 744.478 144.027C740.822 138.032 738.372 131.586 732.426 126.395C729.614 123.605 727.324 120.5 723.494 118.27C718.727 115.724 714.442 112.681 709.246 110.533C708.294 110.158 707.284 109.855 706.233 109.63C701.509 108.601 696.686 107.789 691.798 107.201C686.321 106.876 681.005 108.05 675.729 109.007C659.69 111.56 644.698 116.495 631.847 123.452C620.331 129.347 609.082 135.514 598.155 141.86C582.715 151.087 567.718 160.621 552.974 170.344C553.282 166.886 553.496 163.42 553.724 159.971C552.988 153.823 552.733 147.638 551.729 141.508C549.854 135.784 548.528 129.925 546.051 124.31C543.145 119.507 540.775 114.532 537.508 109.865C534.12 106.037 530.397 102.344 526.795 98.6064C522.778 94.7333 516.497 92.2235 511.395 89.0275C506.039 86.4274 499.169 86.1746 493.103 84.8114C486.476 83.6883 479.532 83.7318 472.937 84.9378C465.772 86.3191 458.354 87.258 451.578 89.4519C434.732 94.634 420.431 102.624 406.558 110.749C384.117 123.77 363.026 137.811 343.433 152.775C328.408 163.997 313.852 175.49 298.921 186.757C293.873 190.621 288.838 194.504 283.723 198.341C282.183 189.962 277.804 181.575 266.703 177.422C263.074 176.592 259.231 175.933 255.468 176.817C244.608 178.208 235.716 182.785 227.441 187.471C203.337 200.742 181.751 215.936 159.508 230.571L156 232.909C157.901 232.44 159.749 232.007 161.584 231.564Z" fill="#FFF2FF"/>
<path d="M710.264 383.271H961.688" stroke="#BC6BBA" stroke-width="2" stroke-linecap="round" stroke-linejoin="round"/>
<path d="M677.938 398.561H891.687" stroke="#BC6BBA" stroke-width="2" stroke-linecap="round" stroke-linejoin="round"/>
<path d="M725.628 304.022L736.367 405.298H815.963L828.868 304.022H725.628Z" fill="#F2B53D"/>
<path d="M734.945 319.179C763.377 328.413 793.928 328.786 822.575 320.249" stroke="#F8D77D" stroke-width="2" stroke-linecap="round" stroke-linejoin="round"/>
<path d="M728.413 329.721C727.267 325.117 722.866 322.125 719.073 319.214C715.279 316.302 711.428 312.182 712.127 307.429C712.504 305.435 713.644 303.669 715.302 302.51C716.96 301.35 719.005 300.889 720.998 301.226C724.952 302.077 727.726 306.612 728.413 329.721Z" fill="#F2B53D"/>
<path d="M825.487 331.954C827.687 326.694 832.81 323.357 836.363 318.903C839.916 314.449 841.395 306.934 836.73 303.677C832.982 301.053 826.862 303.907 825.487 331.954Z" fill="#F2B53D"/>
<path d="M751.976 300.201C756.012 283.381 754.881 265.727 748.732 249.564C742.635 234.027 731.644 221.356 718.269 214.44C728.584 210.849 738.899 217.8 747.116 225.338C749.111 216.407 744.297 207.385 738.039 202.16C731.782 196.935 724.149 194.415 717.215 190.467C710.281 186.52 703.588 180.363 701.869 171.512C715.416 172.691 728.022 178.959 737.168 189.063C738.463 180.731 733.994 172.744 728.435 167.634C722.877 162.524 716.137 159.371 710.373 154.56C704.608 149.75 699.611 142.442 699.966 134.018C711.29 134.915 722.005 141.694 728.699 152.178C730.017 143.685 725.547 135.491 720.069 129.955C714.59 124.419 707.977 120.552 702.705 114.752C697.433 108.952 693.537 100.228 695.726 91.9076C705.754 96.373 713.891 105.937 717.673 117.687C721.455 109.7 718.957 99.6874 714.441 92.5981C709.926 85.5088 703.657 80.2724 698.705 73.5745C693.754 66.8765 690.19 57.6696 692.597 49.0267C703.187 54.0099 711.416 65.0236 714.258 78.0053C713.662 65.3458 709.502 53.538 707.828 41.0972C706.155 28.6565 707.622 14.1787 715.943 5.73139C722.888 17.0904 721.387 32.8111 719.117 46.8515C716.848 60.892 714.166 76.0603 719.381 88.6622C719.304 80.1408 721.412 71.7428 725.501 64.2755L721.879 130.553C725.318 123.464 728.894 115.799 728.32 107.836C733.054 113.199 734.143 121.715 733.627 129.552C733.111 137.39 731.266 145.146 731.163 152.995C731.06 160.844 733.054 169.291 738.532 173.584C736.627 167.148 736.82 160.269 739.082 153.95C746.096 167.922 747.357 185.806 742.429 201.412C747.942 197.361 751.689 190.099 752.125 182.595C760.766 192.884 760.251 209.456 759.357 224.13C758.898 231.518 758.474 238.914 758.085 246.318C756.984 265.883 755.892 285.447 754.807 305.012H749.5C750.027 303.113 750.566 301.226 751.976 300.201Z" fill="#46B288"/>
<path d="M793.293 305.127L784.617 303.182C780.602 290.66 779.485 277.384 781.35 264.364C777.338 265.074 773.217 264.848 769.306 263.701C765.395 262.555 761.799 260.519 758.798 257.753C755.797 254.986 753.47 251.562 751.999 247.747C750.528 243.932 749.951 239.828 750.314 235.753C752.973 239.022 757.489 240 761.672 240.357C765.855 240.713 770.233 240.564 774.004 242.405C777.775 244.247 780.663 248.873 778.875 252.682C783.104 243.372 777.66 230.931 767.953 227.778C764.021 226.489 759.735 226.627 755.781 225.327C745.226 221.966 739.736 207.776 745.466 198.189C744.664 201.814 748.71 204.841 752.343 205.094C755.976 205.348 759.712 204.059 763.414 204.277C771.735 204.784 778.061 214.635 776.216 222.783C778.015 217.938 779.448 212.805 778.978 207.649C778.508 202.493 775.803 197.292 771.162 195.047C765.637 192.354 758.956 194.334 752.985 192.849C749.956 192.095 747.214 190.466 745.098 188.164C742.981 185.862 741.583 182.987 741.076 179.896C740.568 176.804 740.974 173.631 742.244 170.769C743.513 167.906 745.589 165.48 748.217 163.79C747.495 167.91 750.979 171.662 754.784 173.342C758.589 175.022 762.807 175.402 766.68 177.048C770.554 178.694 774.038 182.388 773.419 186.508C779.517 180.846 776.296 170.166 770.21 164.492C764.125 158.818 755.93 155.78 749.993 149.945C744.057 144.11 741.432 133.131 747.953 127.964C748.698 131.923 752.629 134.409 756.423 135.686C760.216 136.964 764.365 137.62 767.54 140.071C770.715 142.522 772.331 147.701 769.465 150.521C773.591 148.645 774.795 142.948 773.11 138.724C771.425 134.501 767.666 131.509 763.941 128.942C760.216 126.376 756.217 123.936 753.626 120.23C751.43 116.943 750.435 112.994 750.811 109.053C751.187 105.113 752.911 101.425 755.689 98.617C759.845 99.9292 763.481 102.529 766.075 106.044C768.669 109.558 770.089 113.807 770.13 118.182C774.806 110.816 770.955 101.195 767.059 93.3921C763.162 85.5893 759.311 75.9796 763.976 68.6142C770.726 73.5283 775.608 80.9859 774.588 88.9268C779.287 86.0842 780.709 79.7199 779.815 74.2764C778.921 68.8328 776.227 63.9187 774.474 58.6708C772.72 53.4228 772.01 47.3693 775.345 43.1227C783.173 43.6405 789.098 52.7899 786.462 60.2014C790.729 55.5182 793.729 49.8139 795.174 43.634C796.618 37.4542 796.46 31.0054 794.714 24.9046C796.806 24.0551 799.106 23.8623 801.309 24.3518C803.513 24.8412 805.517 25.9899 807.057 27.6462C808.598 29.3026 809.602 31.3889 809.937 33.6299C810.273 35.871 809.924 38.1615 808.937 40.1995C821.89 28.8174 832.715 15.2039 840.901 0C847.262 5.52412 845.612 16.4343 840.019 22.741C834.426 29.0477 826.186 32.1435 818.621 35.8377C811.057 39.532 803.264 44.7108 800.685 52.7668L828.042 39.9117C827.548 44.662 825.645 49.1539 822.58 52.8061C819.515 56.4583 815.429 59.1027 810.851 60.397C805.522 61.8011 799.86 61.2602 794.439 62.2614C789.018 63.2627 783.31 66.6117 782.336 72.0667C786.6 70.7317 790.989 73.2176 795.321 74.3684C799.654 75.5193 805.762 73.7009 807.596 69.2586C807.433 72.2622 806.531 75.1783 804.97 77.7456C803.41 80.313 801.239 82.4515 798.653 83.9695C796.067 85.4874 793.146 86.3375 790.152 86.4434C787.159 86.5494 784.186 85.908 781.499 84.5766L779.987 78.9834C776.615 87.2523 774.718 96.0523 774.382 104.981C774.279 107.64 774.382 110.54 776.113 112.565C779.047 116.018 785.087 114.683 787.895 111.115C790.703 107.548 791.172 102.726 791.528 98.1912C796.857 97.7309 800.811 104.038 799.894 109.332C798.977 114.625 794.84 118.734 790.611 121.991C786.382 125.248 781.729 128.298 778.886 132.855C775.826 137.792 775.322 143.903 775.643 149.715C775.588 151.413 776.07 153.085 777.018 154.491C779.643 157.702 785.041 155.435 787.493 152.097C789.946 148.76 791.287 144.306 792.788 140.232C794.29 136.158 796.227 131.98 799.768 129.449C803.31 126.917 808.754 126.652 811.596 129.943C806.393 130.714 803.86 136.918 803.825 142.2C803.791 147.482 805.189 152.926 803.585 157.955C802.802 160.407 801.345 162.587 799.381 164.242C797.417 165.897 795.027 166.96 792.486 167.307C789.946 167.655 787.359 167.274 785.025 166.208C782.692 165.141 780.706 163.433 779.299 161.281C780.903 166.529 778.909 172.191 779.299 177.669C779.689 183.148 784.789 189.282 789.705 186.876C793.373 185.081 793.774 180.109 795.551 176.415C797.047 173.539 799.532 171.305 802.543 170.129C805.555 168.952 808.889 168.912 811.928 170.016C807.493 170.408 804.96 175.437 804.593 179.891C804.226 184.344 805.143 188.982 803.711 193.218C802.767 195.96 800.902 198.287 798.436 199.799C795.97 201.312 793.057 201.916 790.196 201.508C787.335 201.099 784.705 199.704 782.757 197.562C780.808 195.419 779.663 192.663 779.517 189.765L782.474 216.016C782.76 218.525 783.39 221.506 785.751 222.38C787.814 223.14 790.13 221.701 791.287 219.825C792.445 217.95 792.811 215.705 793.579 213.622C797.167 203.126 811.011 197.706 821.028 203.046C815.389 203.874 812.157 209.951 810.862 215.521C809.567 221.091 809.12 227.225 805.441 231.633C799.917 238.193 787.769 236.812 783.837 229.182C782.909 234.833 782.015 240.748 783.837 246.157C785.66 251.566 791.299 256.146 796.823 254.754C801.533 253.603 804.364 248.735 805.877 244.109C807.39 239.482 808.226 234.441 811.218 230.609C814.209 226.777 820.501 224.855 823.882 228.399C819.962 229.447 818.094 234.154 818.243 238.182C818.392 242.21 819.951 246.169 820.272 250.231C820.584 254.05 819.797 257.878 818.003 261.26C816.209 264.642 813.485 267.435 810.155 269.305C806.824 271.175 803.029 272.045 799.22 271.809C795.411 271.574 791.751 270.244 788.674 267.977C786.141 271.925 787.471 277.184 789.556 281.385C791.642 285.585 794.473 289.648 794.817 294.32C795.161 298.993 791.551 304.367 793.293 305.127Z" fill="#399A7B"/>
<path d="M782.898 232.416C769.546 225.73 761.524 209.71 764.137 194.956C769.272 197.395 773.687 201.134 776.948 205.805C780.209 210.476 782.204 215.919 782.738 221.598C785.615 215.752 788.537 209.779 789.397 203.311C790.256 196.843 788.675 189.685 783.781 185.392C780.618 182.63 776.377 181.272 773.466 178.245C770.555 175.218 770.028 169.142 773.924 167.565C777.26 168.118 780.438 169.385 783.244 171.279C786.049 173.174 788.417 175.651 790.185 178.545C791.953 181.438 793.082 184.679 793.493 188.049C793.905 191.419 793.591 194.838 792.571 198.075C795.288 192.424 803.024 192.32 809.201 191.446C815.336 190.462 821.11 187.89 825.954 183.983C830.798 180.076 834.543 174.969 836.822 169.165C825.627 168.775 814.721 172.779 806.416 180.328C800.147 174.39 793.809 168.313 789.534 160.764C785.259 153.214 783.46 143.812 786.761 135.802C791.344 139.089 795.091 143.417 797.696 148.432C800.301 153.447 801.69 159.009 801.752 164.665C807.216 165.279 812.748 164.722 817.982 163.031C823.216 161.34 828.034 158.554 832.117 154.856C836.201 151.158 839.456 146.633 841.67 141.579C843.884 136.525 845.005 131.057 844.959 125.536C836.133 126.962 828.113 131.534 822.37 138.414C820.605 140.543 818.932 143.017 816.422 144.042C811.62 146.079 806.29 142.292 803.356 137.977C799.945 132.744 798.19 126.597 798.323 120.345C798.456 114.092 800.47 108.026 804.101 102.945C807.307 106.844 809.695 111.354 811.121 116.203C812.547 121.052 812.981 126.141 812.399 131.164C831.218 127.654 846.002 108.975 843.951 89.7327C839.367 92.1681 835.315 95.5015 832.035 99.536C828.756 103.57 826.315 108.224 824.857 113.222C821.907 110.645 819.591 107.418 818.087 103.794C816.584 100.17 815.934 96.2459 816.19 92.3282C816.445 88.4106 817.598 84.605 819.558 81.2084C821.519 77.8117 824.234 74.9156 827.493 72.7461C830.541 78.3754 831.884 84.7765 831.356 91.162C830.829 97.5476 828.454 103.639 824.525 108.687" stroke="#136F7A" stroke-width="2" stroke-linecap="round" stroke-linejoin="round"/>
<path d="M745.719 272.419C758.154 265.733 765.615 249.725 763.185 234.971C753.615 239.701 746.762 250.277 745.902 261.601C743.22 255.755 740.493 249.782 739.702 243.314C738.911 236.846 740.332 229.688 744.917 225.395C747.862 222.622 751.793 221.264 754.509 218.237C757.226 215.21 757.695 209.134 754.085 207.557C750.923 208.179 747.932 209.483 745.32 211.378C742.708 213.274 740.537 215.716 738.957 218.536C737.315 221.487 736.273 224.736 735.892 228.095C735.51 231.453 735.796 234.854 736.733 238.101C734.212 232.45 727.015 232.347 721.261 231.472C709.8 229.654 699.657 220.815 695.554 209.191C700.779 209.027 705.983 209.933 710.848 211.855C715.713 213.776 720.137 216.672 723.851 220.366C729.696 214.416 735.622 208.34 739.564 200.802C743.507 193.263 745.214 183.849 742.143 175.839C737.806 179.281 734.299 183.663 731.886 188.657C729.472 193.651 728.215 199.129 728.206 204.68C723.071 205.242 717.876 204.655 712.993 202.962C708.111 201.268 703.662 198.511 699.967 194.886C696.132 191.04 693.099 186.464 691.044 181.428C688.99 176.391 687.955 170.993 688.001 165.551C696.358 167.071 703.852 171.662 709.021 178.429C710.66 180.558 712.196 183.032 714.556 184.057C719.015 186.094 723.989 182.307 726.717 177.992C733.215 167.691 732.928 152.949 726.017 142.959C719.935 151.023 717.169 161.126 718.293 171.179C700.78 167.668 687.027 148.99 688.941 129.748C693.295 132.297 697.106 135.684 700.154 139.715C703.202 143.745 705.429 148.341 706.706 153.237C709.458 150.538 711.6 147.275 712.984 143.671C714.369 140.066 714.964 136.205 714.728 132.349C714.503 128.515 713.446 124.778 711.63 121.398C709.815 118.018 707.285 115.078 704.219 112.784C698.397 123.901 699.543 138.805 706.981 148.725" stroke="#1B8987" stroke-width="2" stroke-linecap="round" stroke-linejoin="round"/>
<path d="M731.806 245.777C732.631 263.995 743.267 281.672 759.839 292.49C764.206 295.333 769.008 297.761 772.71 301.248" stroke="#2C826E" stroke-width="2" stroke-linecap="round" stroke-linejoin="round"/>
<path d="M775.861 268.599C775.52 263.038 774.614 257.528 773.157 252.153C771.506 246.836 768.652 241.795 764.24 238.342C759.827 234.89 754.166 233.555 748.963 231.437C743.759 229.32 738.51 225.948 736.757 220.539C737.777 222.109 739.213 223.363 740.903 224.16C742.593 224.957 744.471 225.265 746.326 225.05C748.871 224.716 751.174 223.393 753.501 222.311C755.828 221.229 758.441 220.32 760.939 220.907C762.209 221.221 763.343 221.94 764.17 222.957C764.997 223.975 765.472 225.234 765.524 226.546C763.964 222.856 763.583 218.77 764.435 214.853C765.287 210.936 767.33 207.381 770.28 204.68C773.455 201.895 777.454 200.261 780.973 197.947C784.491 195.634 787.758 192.193 788.01 187.958L789.431 192.999C789.291 191.942 788.943 190.924 788.408 190.003C787.873 189.083 787.161 188.278 786.314 187.636C786.245 191.088 782.875 193.666 779.529 194.161C776.182 194.656 772.778 193.597 769.512 192.619C766.246 191.641 762.784 190.755 759.484 191.595C756.183 192.435 753.215 195.623 753.157 198.5C755.232 194.978 757.34 191.341 757.868 187.29C758.395 183.239 756.905 178.624 753.283 176.714C747.175 173.469 739.668 179.488 732.975 177.727C731.289 177.18 729.744 176.269 728.447 175.058C727.15 173.847 726.133 172.366 725.468 170.718C724.087 167.571 723.569 164.11 723.966 160.694C723.072 164.572 727.748 167.795 731.668 167.242C735.588 166.69 738.739 163.847 741.88 161.431C745.02 159.014 748.94 156.827 752.768 157.84C755.919 158.68 758.189 161.592 759.174 164.745C759.996 167.916 760.283 171.203 760.022 174.47C760.664 170.499 763.461 167.219 766.578 164.676C769.695 162.133 773.202 160.073 776.125 157.357C779.629 153.966 782.128 149.665 783.342 144.932C784.556 140.2 784.438 135.222 783.001 130.553C781.088 135.157 777.741 140.37 772.755 140.163C770.463 140.071 768.446 138.839 766.211 138.805C764.821 138.88 763.47 139.301 762.282 140.03C761.094 140.76 760.104 141.774 759.403 142.982C757.891 145.284 757.203 148.081 755.61 150.451C758.338 144.409 754.097 137.251 748.584 133.58C743.072 129.909 736.413 128.39 730.694 125.064C724.975 121.738 719.978 115.396 721.525 108.952C720.562 112.496 726.109 114.487 729.296 112.749C732.482 111.012 734.613 107.536 737.937 106.005C742.407 103.934 747.942 106.097 751.106 109.872C754.269 113.647 755.495 118.676 756.217 123.556C754.131 117.18 758.005 110.287 762.991 105.833C767.976 101.379 774.142 98.3521 778.887 93.6336C783.632 88.9151 786.784 81.446 783.712 75.4846C783.712 80.3642 779.128 84.0815 774.406 85.4165C769.684 86.7515 764.733 86.4868 759.999 87.5801C755.266 88.6734 750.384 91.7922 749.616 96.6143C754.521 93.3574 752.206 85.1057 747.324 81.8488C742.441 78.5919 736.184 78.2927 730.671 76.2441C725.158 74.1956 719.794 68.7406 721.502 63.1014C720.241 69.3735 720.494 65.944 721.238 62.2727C725.445 65.7253 729.96 69.2469 735.335 69.8799C737.96 70.1906 740.642 69.7763 743.244 70.2597C745.845 70.7431 748.527 72.5614 749.112 75.1508C749.215 75.1508 749.318 75.1508 750.819 76.9692C750.177 68.1996 741.822 60.9723 742.705 52.2142C743.392 45.4242 749.364 40.5906 754.853 36.5741C752.16 40.6711 752.756 46.0111 753.192 50.9023C753.627 55.7934 753.558 61.352 750.051 64.7701L749.295 62.8482" stroke="#2C826E" stroke-width="2" stroke-linecap="round" stroke-linejoin="round"/>
<path d="M716.678 44.7108C713.163 42.1616 710.393 38.7124 708.658 34.7227C706.922 30.7331 706.284 26.349 706.81 22.0274C707.303 18.3677 708.643 14.823 708.724 11.1402C708.804 7.45749 707.165 3.27989 703.658 2.12904C716.047 11.0597 721.995 28.1039 716.678 44.7108Z" stroke="#2C826E" stroke-width="2" stroke-linecap="round" stroke-linejoin="round"/>
<path d="M796.491 205.003C783.638 235.337 779.604 268.707 784.858 301.249" stroke="#4B8A2D" stroke-width="2" stroke-linecap="round" stroke-linejoin="round"/>
<path d="M800.112 300.593C798.095 286.417 801.128 271.981 808.677 259.832C816.226 247.683 827.805 238.601 841.372 234.188C832.008 230.31 821.43 234.983 812.822 240.334C811.905 232.899 817.407 226.029 823.951 222.381C830.495 218.732 837.968 217.409 844.97 214.843C851.973 212.276 858.998 207.937 861.589 200.906C848.909 200.5 836.457 204.347 826.197 211.839C825.876 204.934 830.976 198.903 836.81 195.278C842.644 191.653 849.417 189.731 855.365 186.37C861.314 183.01 866.826 177.543 867.468 170.684C862.03 170.549 856.624 171.549 851.591 173.621C846.559 175.694 842.009 178.793 838.231 182.722C837.933 175.679 843.033 169.499 848.833 165.517C854.632 161.535 861.325 159.026 866.952 154.814C872.58 150.602 877.198 143.881 876.052 136.941C871.05 138.312 866.378 140.691 862.319 143.931C858.261 147.172 854.901 151.207 852.443 155.792C849.715 148.967 853.165 141.073 858.231 135.756C863.296 130.439 869.841 126.767 875.262 121.819C880.683 116.87 885.049 109.712 883.72 102.473C878.42 104.047 873.54 106.794 869.438 110.512C865.337 114.231 862.118 118.826 860.019 123.959C861.955 113.774 867.182 104.544 870.127 94.6124C873.073 84.6805 873.233 72.8037 866.265 65.1735C858.437 73.7358 858.162 86.6255 858.792 98.2261C859.423 109.827 860.316 122.394 854.002 132.119C854.992 125.165 853.894 118.073 850.85 111.749L847.079 165.839C844.581 159.762 842.036 153.18 843.435 146.804C838.369 150.717 836.409 157.518 836.042 163.929C835.675 170.339 836.592 176.795 835.859 183.171C835.125 189.547 832.294 196.21 826.621 199.179C829.12 194.242 829.692 188.545 828.226 183.205C824.169 188.584 821.325 194.783 819.888 201.374C818.451 207.965 818.457 214.791 819.905 221.379C817.527 219.455 815.638 216.991 814.394 214.19C813.151 211.388 812.588 208.33 812.754 205.267C803.447 212.794 802.129 226.282 801.384 238.274C801.006 244.305 800.594 250.346 800.181 256.388L796.915 304.299L801.969 304.782C801.648 303.159 801.338 301.583 800.112 300.593Z" fill="#46B288"/>
<path d="M688.156 159.137H427.604V169.415H688.156V159.137Z" fill="#F8D77D"/>
<path d="M650.868 112.932H390.316V123.211H650.868V112.932Z" fill="#F8D77D"/>
<path d="M326.396 279.625L360.789 254.043L385.36 247.066L386.572 213.341C418.292 200.922 479.28 206.69 514.072 206.315C527.669 218.407 525.688 220.07 536.189 205.154H559.541L643.463 208.643L649.601 215.62L652.061 243.529C662.078 242.598 669.518 245.591 679.086 248.179L717.157 266.789L714 404L334.983 407.549L326.396 279.625Z" fill="#FBEAB3"/>
<path d="M333.115 407.258L335.539 453.771H344.137L347.828 422.374L702.965 415.354L704.177 447.913L713.999 446.752L715.211 403.727L333.115 407.258Z" fill="#EE9D33"/>
<path d="M386.486 254.593C392.673 253.928 398.241 259.182 400.114 265.101C401.986 271.021 401.053 277.417 400.114 283.548" stroke="#F8D77D" stroke-width="2" stroke-linecap="round" stroke-linejoin="round"/>
<path d="M518.936 221.914C521.191 232.074 522.11 242.485 521.669 252.882C517.04 252.638 512.487 254.137 508.914 257.084L521.002 260.942C516.076 265.984 524.111 276.099 519.033 280.991C517.676 282.297 515.731 282.75 513.883 283.125C482.804 289.458 450.819 289.993 419.545 284.703" stroke="#F8D77D" stroke-width="2" stroke-linecap="round" stroke-linejoin="round"/>
<path d="M648.056 250.839C645.077 251.559 642.296 252.934 639.917 254.862C637.538 256.791 635.621 259.225 634.304 261.987C632.987 264.749 632.305 267.769 632.306 270.828C632.308 273.886 632.994 276.906 634.313 279.666" stroke="#F8D77D" stroke-width="2" stroke-linecap="round" stroke-linejoin="round"/>
<path d="M396.424 300.792C397.03 306.675 392.958 312.183 387.941 315.369C382.923 318.555 377.07 319.982 371.502 322.02C365.933 324.057 360.31 326.941 357.196 331.972C354.081 337.002 353.996 343.296 354.057 349.227C354.184 362.42 353.996 351.083 357.196 366.271C438.005 366.271 546.277 362.638 585.893 364.27C612.863 365.377 669.515 361.666 683.211 361.666C684.974 351.134 684.618 333.32 678.752 324.372C668.451 308.543 643.754 307.019 633.913 290.9" stroke="#F8D77D" stroke-width="2" stroke-linecap="round" stroke-linejoin="round"/>
<path d="M717.157 276.595C716.423 316.639 712.915 356.773 712.176 396.823C712.079 396.393 710.77 395.97 710.673 395.547" stroke="#F8D77D" stroke-width="2" stroke-linecap="round" stroke-linejoin="round"/>
<path d="M329.528 285.664C328.306 325.618 329.89 365.609 334.267 405.342L334.624 402.204" stroke="#F8D77D" stroke-width="2" stroke-linecap="round" stroke-linejoin="round"/>
<path d="M546.391 282.097C553.196 279.818 560.6 281.553 567.774 281.45C574.949 281.348 583.292 278.107 584.741 271.087L583.25 281.777C597.233 278.637 611.694 278.239 625.829 280.604" stroke="#F8D77D" stroke-width="2" stroke-linecap="round" stroke-linejoin="round"/>
<path d="M336.395 406.013C494.731 404.308 552.483 401.387 710.819 399.676" stroke="#EB862A" stroke-width="2" stroke-linecap="round" stroke-linejoin="round"/>
<path d="M343.418 449.999L346.672 422.325C353.406 422.506 360.129 421.66 366.607 419.816" stroke="#EB862A" stroke-width="2" stroke-linecap="round" stroke-linejoin="round"/>
<path d="M575.732 417.567C618.432 414.217 661.272 414.961 704.111 414.961L706.989 445.192" stroke="#EB862A" stroke-width="2" stroke-linecap="round" stroke-linejoin="round"/>
<path d="M511.989 59.1216H445.336V112.328H511.989V59.1216Z" fill="#D66FAB"/>
<path d="M448.452 61.2075C448.984 62.5321 449.904 63.6657 451.092 64.4602C452.28 65.2547 453.681 65.6731 455.111 65.6607C456.541 65.6483 457.934 65.2056 459.108 64.3907C460.282 63.5757 461.183 62.4263 461.692 61.0926C461.991 62.3673 462.698 63.5104 463.705 64.35C464.712 65.1896 465.965 65.6804 467.275 65.7485C468.585 65.8167 469.883 65.4586 470.971 64.728C472.06 63.9974 472.882 62.9339 473.313 61.6973C474.087 63.2497 475.32 64.5275 476.845 65.3581C478.37 66.1886 480.114 66.5318 481.841 66.3412C483.569 66.1506 485.195 65.4354 486.502 64.2924C487.808 63.1493 488.731 61.6335 489.146 59.9499C489.422 61.3876 490.173 62.6916 491.278 63.6537C492.384 64.6158 493.78 65.1806 495.245 65.2579C496.71 65.3352 498.159 64.9204 499.36 64.0799C500.561 63.2395 501.445 62.0217 501.871 60.621C502.054 61.7171 502.611 62.7168 503.446 63.4519C504.281 64.1869 505.345 64.6126 506.457 64.6573C507.57 64.702 508.664 64.363 509.556 63.6973C510.448 63.0316 511.083 62.0798 511.354 61.0019" stroke="#B43073" stroke-width="2" stroke-linecap="round" stroke-linejoin="round"/>
<path d="M501.144 60.808C501.495 77.0903 501.289 94.6664 501.289 110.55" stroke="#B43073" stroke-width="2" stroke-linecap="round" stroke-linejoin="round"/>
<path d="M473.308 63.1484C474.168 80.1381 473.811 93.5666 474.671 110.55" stroke="#B43073" stroke-width="2" stroke-linecap="round" stroke-linejoin="round"/>
<path d="M462.122 63.1484C460.304 81.8371 459.371 92.4239 459.819 110.55" stroke="#B43073" stroke-width="2" stroke-linecap="round" stroke-linejoin="round"/>
<path d="M489.213 59.726C489.418 78.9104 489.019 91.3836 489.213 110.568" stroke="#B43073" stroke-width="2" stroke-linecap="round" stroke-linejoin="round"/>
<path d="M660.107 241.888C653.247 241.148 647.055 246.988 644.978 253.623C642.902 260.257 643.931 267.334 644.978 274.158" stroke="#FDC5FF" stroke-width="2" stroke-linecap="round" stroke-linejoin="round"/>
<path d="M527.18 205.88C524.679 217.191 523.66 228.78 524.148 240.354C529.287 240.075 534.343 241.741 538.31 245.02L524.915 249.317C530.385 254.932 521.467 266.188 527.108 271.631C528.616 273.084 530.773 273.59 532.822 274.005C567.338 281.054 602.862 281.651 637.595 275.765" stroke="#FDC5FF" stroke-width="2" stroke-linecap="round" stroke-linejoin="round"/>
<path d="M635.563 193.36C644.96 197.224 649.663 209.672 645.177 218.78C640.738 219.572 636.6 221.56 633.207 224.53L644.942 223.528C645.627 230.758 645.124 238.052 643.453 245.12" stroke="#FDC5FF" stroke-width="2" stroke-linecap="round" stroke-linejoin="round"/>
<path d="M668.14 244.596C679.655 246.79 690.465 251.746 699.643 259.039" stroke="#FDC5FF" stroke-width="2" stroke-linecap="round" stroke-linejoin="round"/>
<path d="M693.912 223.618C675.519 217.939 656.265 215.564 637.043 216.604C632.187 216.875 626.988 217.281 622.754 214.88C619.468 213.002 617.257 209.672 615.749 206.205C611.859 197.305 611.868 187.096 613.944 177.618C616.02 168.14 620.091 159.23 624.153 150.411C626.554 145.203 629.163 139.751 633.866 136.465C642.658 130.309 655.322 134.335 663.085 141.755C673.854 152.036 678.286 167.192 681.328 181.77C684.37 196.348 686.654 211.54 693.912 223.618Z" fill="#DD3260"/>
<path d="M654.051 134.56L670.651 137.07C670.991 137.068 671.327 137.149 671.629 137.306C671.931 137.464 672.19 137.692 672.384 137.972C672.582 138.257 672.712 138.583 672.765 138.925C672.818 139.268 672.793 139.618 672.691 139.949L665.153 186.888C665.152 187.238 665.07 187.583 664.913 187.896C664.757 188.209 664.53 188.482 664.251 188.693C663.981 188.901 663.666 189.041 663.331 189.1C662.997 189.16 662.652 189.138 662.328 189.036L653.301 187.736C652.961 187.738 652.625 187.657 652.323 187.5C652.021 187.342 651.762 187.114 651.568 186.834C651.368 186.55 651.237 186.224 651.184 185.881C651.13 185.538 651.157 185.188 651.261 184.857L652.299 180.975L647.1 180.19C631.393 177.816 625.039 171.163 627.629 154.013C630.22 136.862 638.317 132.186 654.051 134.56Z" fill="#EDC798"/>
<path d="M639.508 170.622C641.252 171.801 643.249 172.555 645.338 172.822C647.427 173.089 649.549 172.862 651.534 172.16C653.519 171.457 655.312 170.299 656.768 168.778C658.224 167.256 659.302 165.415 659.917 163.401" stroke="#8E5F35" stroke-width="2" stroke-linecap="round" stroke-linejoin="round"/>
<path d="M645.51 159.916C644.114 159.916 642.983 158.785 642.983 157.389C642.983 155.993 644.114 154.862 645.51 154.862C646.906 154.862 648.038 155.993 648.038 157.389C648.038 158.785 646.906 159.916 645.51 159.916Z" fill="#0071BC"/>
<path d="M632.881 155.557C631.486 155.557 630.354 154.425 630.354 153.029C630.354 151.633 631.486 150.502 632.881 150.502C634.277 150.502 635.409 151.633 635.409 153.029C635.409 154.425 634.277 155.557 632.881 155.557Z" fill="#0071BC"/>
<path d="M646.088 165.241C642.766 164.172 641.388 159.216 643.011 154.171C644.633 149.127 648.642 145.903 651.964 146.972C655.286 148.04 656.664 152.996 655.041 158.041C653.419 163.086 649.41 166.309 646.088 165.241Z" stroke="#FCF8E6" stroke-width="2" stroke-linecap="round" stroke-linejoin="round"/>
<path d="M633.106 159.501C630.183 158.56 628.988 154.143 630.439 149.634C631.889 145.126 635.434 142.233 638.358 143.174C641.281 144.114 642.476 148.531 641.025 153.04C639.575 157.548 636.03 160.441 633.106 159.501Z" stroke="#FCF8E6" stroke-width="2" stroke-linecap="round" stroke-linejoin="round"/>
<path d="M642.621 154.988C642.706 154.546 642.622 154.089 642.387 153.706C642.284 153.544 642.132 153.419 641.954 153.35C641.775 153.28 641.579 153.269 641.394 153.318C641.181 153.394 640.991 153.524 640.843 153.695C640.694 153.865 640.592 154.071 640.545 154.293" stroke="#FCF8E6" stroke-width="2" stroke-linecap="round" stroke-linejoin="round"/>
<path d="M651.901 132.195C649.563 139.11 654.528 145.149 658.427 151.792C663.636 160.656 673.376 163.915 675.379 170.92C677.871 179.64 672.581 186.265 677.997 193.839C681.915 199.327 690.373 200.78 695.076 205.754C703.814 214.988 669.801 255.942 679.568 264.274C685.562 269.365 689.046 277.155 696.971 279.313C706.702 281.957 709.609 273.68 717.841 274.294C721.073 274.528 724.006 277.796 728.195 279.502C730.957 271.685 738.061 265.854 743.54 259.309C749.019 252.765 753.081 243.774 748.866 236.517C744.65 229.259 733.349 226.398 730.235 218.626C725.721 207.334 739.009 198.063 730.867 183.178C727.518 177.058 713.012 173.249 706.865 169.196C696.556 162.381 700.627 147.712 688.595 148.38C674.387 149.156 674.711 124.062 651.901 132.195Z" fill="#DD3260"/>
<path d="M631.754 143.1C629.398 146.024 627.141 154.22 626.771 157.759C626.401 161.297 626.464 164.98 624.794 168.212C623.44 170.812 621.066 172.843 619.586 175.379C616.264 181.093 618.042 188.071 618.683 195.084C612.563 195.572 597.344 188.766 597.173 182.122C597.001 175.478 596.27 173.493 601.767 169.196C606.506 165.477 611.606 165.314 614.152 160.079C616.616 154.997 616.526 147.775 620.254 142.025C624.867 134.93 631.889 130.886 642.821 128.738C655.873 126.174 664.413 131.112 664.413 131.112C664.413 131.112 652.236 131.943 651.27 134.994C646.567 133.242 635.491 138.424 631.754 143.1Z" fill="#DD3260"/>
<path d="M664.946 134.046C669.044 132.475 673.602 134.66 677.069 137.341C680.535 140.021 683.748 143.343 687.964 144.562C691.981 145.69 696.521 144.733 700.222 146.656C707.353 150.375 706.469 161.622 712.67 166.741C717.382 170.631 724.315 169.575 730.209 171.191C734.419 172.456 738.088 175.086 740.638 178.667C743.187 182.248 744.473 186.576 744.291 190.968C743.966 195.761 741.871 200.239 740.68 204.896C739.488 209.554 739.416 214.979 742.548 218.617C744.724 221.136 748.028 222.318 751.223 223.221C754.419 224.123 757.768 224.918 760.421 226.913C763.075 228.908 764.835 232.554 763.554 235.623" stroke="#CE0E47" stroke-width="2" stroke-linecap="round" stroke-linejoin="round"/>
<path d="M654.618 140.518C655.197 146.492 657.505 152.168 661.26 156.851C665.014 161.534 670.053 165.021 675.758 166.885C679.703 168.104 683.882 168.519 687.601 170.387C691.32 172.256 694.408 176.237 693.46 180.254C692.747 183.305 689.921 185.561 689.389 188.639C688.748 192.358 691.772 195.861 695.211 197.386C698.65 198.912 702.523 199.192 706.178 200.094C709.834 200.997 713.58 203.127 714.781 206.711C716.695 212.434 711.297 217.75 709.365 223.464C708.553 225.854 708.355 228.41 708.787 230.896C709.219 233.383 710.268 235.721 711.838 237.697C713.408 239.673 715.449 241.224 717.773 242.207C720.098 243.19 722.632 243.573 725.144 243.323" stroke="#CE0E47" stroke-width="2" stroke-linecap="round" stroke-linejoin="round"/>
<path d="M623.702 157.931C621.2 159.506 618.918 161.407 616.914 163.581C615.914 164.676 615.139 165.956 614.634 167.35C614.13 168.744 613.904 170.224 613.972 171.705C614.251 174.594 616.003 177.175 616.328 180.064C616.491 181.693 616.202 183.335 615.491 184.81C614.781 186.285 613.677 187.535 612.302 188.423C610.501 189.375 608.583 190.085 606.597 190.535C604.647 191.14 602.661 191.979 601.433 193.604C600.206 195.229 600.052 197.82 601.596 199.146" stroke="#CE0E47" stroke-width="2" stroke-linecap="round" stroke-linejoin="round"/>
<path d="M724.558 285.162C720.411 282.937 716.928 279.652 714.466 275.641C712.003 271.631 710.648 267.038 710.54 262.333" stroke="#CE0E47" stroke-width="2" stroke-linecap="round" stroke-linejoin="round"/>
<path d="M737.222 244.939C739.515 247.935 741.081 251.423 741.797 255.127C742.513 258.832 742.359 262.652 741.347 266.287" stroke="#CE0E47" stroke-width="2" stroke-linecap="round" stroke-linejoin="round"/>
<path d="M639.237 134.425C631.031 129.514 619.378 131.59 613.321 139.028C611.723 141.005 610.514 143.271 608.988 145.347C607.57 147.484 605.504 149.111 603.094 149.987C600.647 150.709 597.678 149.987 596.351 147.784" stroke="#CE0E47" stroke-width="2" stroke-linecap="round" stroke-linejoin="round"/>
<path d="M655.711 135.328C658.337 135.628 660.849 136.565 663.031 138.056C665.213 139.547 666.998 141.548 668.231 143.885C669.134 145.645 669.73 147.595 670.939 149.129C673.124 151.837 676.834 152.677 680.291 152.93C683.748 153.182 687.323 153.011 690.536 154.293C693.75 155.574 696.53 158.905 695.727 162.272" stroke="#CE0E47" stroke-width="2" stroke-linecap="round" stroke-linejoin="round"/>
<path d="M631.338 134.298C626.34 134.694 621.586 136.622 617.723 139.819C613.861 143.016 611.078 147.326 609.755 152.162C609.16 154.482 608.853 157.001 607.399 158.878C604.935 162.01 600.322 162.11 596.63 163.608C589.698 166.406 586.087 175.56 589.31 182.348" stroke="#CE0E47" stroke-width="2" stroke-linecap="round" stroke-linejoin="round"/>
<path d="M686.635 208.065C686.437 203.994 683.864 200.338 680.615 197.874C677.365 195.409 665.152 193.487 661.081 193.487C648.696 193.487 640.509 185.561 631.293 189.073C626.572 190.878 631.879 195.671 632.105 200.726C632.349 206.214 637.611 209.997 642.558 212.38C649.779 215.846 657.624 218.211 665.612 218.211C673.601 218.211 681.77 215.674 686.635 208.065Z" fill="#EDC798"/>
<path d="M560.289 322.872C534.719 301.699 511.496 277.145 491.118 249.738C481.055 264.351 464.964 271.598 449.813 278.721C434.662 285.843 418.763 294.365 410.324 310.215C408.007 314.575 406.176 319.562 402.466 322.442C399.814 324.505 396.542 325.213 393.373 325.868L370.993 330.524C366.455 331.466 360.874 331.977 358 326.936C369.186 322.101 380.523 317.167 390.101 309.067C402.593 298.491 411.207 283.305 420.769 269.383C432.878 251.758 446.802 235.817 462.249 221.895C468.619 216.127 475.864 210.485 484.064 210.189C489.932 209.982 495.585 212.575 500.784 215.642C543.259 240.696 565.759 297.487 608.942 320.953C592.159 329.178 571.555 332.192 560.289 322.872Z" fill="#EDC798"/>
<path d="M658.589 317.223C658.589 317.223 613.443 329.064 591.544 327.771C582.537 327.238 573.491 322.412 565.897 316.871C551.791 306.576 546.525 293.027 540.433 275.294C535.945 262.188 529.766 246.669 522.164 235.579C514.913 255.382 512.832 265.062 496.406 275.583C483.856 283.618 461.251 305.302 450.552 316.564C446.652 320.667 452.244 325.132 447.232 327.139C437.892 330.881 424.993 332.038 410.942 332.038C406.732 324.436 426.263 320.884 434.572 314.801C439.258 311.367 442.562 306.016 445.731 300.801C464.397 270.124 483.052 239.459 501.696 208.807C505.508 202.552 509.805 195.882 516.223 193.74C525.191 190.748 534.174 197.717 541.441 204.396C554.055 215.992 566.398 227.95 578.772 239.908L658.589 317.223Z" fill="#EDC798"/>
<path d="M560.291 323.178C534.656 301.947 511.375 277.327 490.945 249.845C480.856 264.497 464.725 271.765 449.535 278.907C434.346 286.048 418.406 294.593 409.946 310.487C409.73 302.859 403.377 300.206 397.717 301.402C406.202 291.832 413.027 280.31 420.418 269.543C432.557 251.871 446.517 235.887 462.003 221.926C468.388 216.143 475.652 210.485 483.873 210.189C489.756 209.982 495.423 212.581 500.635 215.657C543.218 240.779 582.8 300.557 626.093 324.086C609.276 332.334 571.585 332.523 560.291 323.178Z" fill="#E9763C"/>
<path d="M658.589 316.905C658.589 316.905 613.406 331.423 591.49 330.134C582.476 329.602 571.408 329.44 563.809 323.914C549.691 313.645 532.896 303.238 526.799 285.55C522.308 272.478 519.513 271.337 511.905 260.275C511.905 264.789 512.714 264.878 496.275 275.371C483.715 283.386 461.092 305.014 450.384 316.247C453.357 307.024 450.344 299.812 445.559 300.524C464.24 269.926 482.91 239.34 501.569 208.766C505.385 202.528 509.685 195.875 516.108 193.738C525.083 190.754 534.073 197.705 541.347 204.367C553.97 215.934 566.323 227.861 578.708 239.788C589.837 250.516 587.961 260.082 598.962 270.702C614.503 285.703 642.906 301.759 658.581 316.905H658.589Z" fill="#E9763C"/>
<path d="M649.401 202.513C657.219 204.959 675.723 196.655 683.856 197.594C691.99 198.532 700.836 202.297 703.526 210.032C705.132 214.645 704.203 219.718 703.147 224.475C697.202 251.493 688.003 277.69 675.75 302.493C672.501 309.074 658.455 322.352 645.177 322.352C639.761 322.352 636.71 311.926 633.641 307.277C625.977 295.687 612.726 287.418 591.053 270.674C587 267.542 572.765 253.821 571.004 249.01C569.019 243.594 570.625 237.528 572.909 232.229C579.905 215.981 607.328 195.969 623.63 189.036C639.932 182.104 634.074 197.72 649.401 202.513Z" fill="#F2B53D"/>
<path d="M666.426 295.416C648.228 288.132 602.995 267.433 597.417 262.523C591.838 257.612 587.93 250.147 588.173 242.781" stroke="#EB862A" stroke-width="2" stroke-linecap="round" stroke-linejoin="round"/>
<path d="M664.675 225.468L663.204 260.077C663.204 260.88 663.041 261.882 662.301 262.189C662.004 262.285 661.69 262.319 661.38 262.288C661.069 262.257 660.768 262.162 660.496 262.008L630.482 250.274" stroke="#EB862A" stroke-width="2" stroke-linecap="round" stroke-linejoin="round"/>
<path d="M614.974 212.885C610.269 221.937 607.138 231.723 605.712 241.825" stroke="#EB862A" stroke-width="2" stroke-linecap="round" stroke-linejoin="round"/>
<path d="M600.079 327.985C590.764 331.993 570.435 331.731 558.953 323.183C529.996 301.618 529.507 288.709 515.064 258.47" stroke="#E35A32" stroke-width="2" stroke-linecap="round" stroke-linejoin="round"/>
<path d="M523.188 235.452C523.188 252.869 512.069 263.01 500.989 271.065C490.664 278.59 477.59 287.747 469.028 297.736" stroke="#E35A32" stroke-width="2" stroke-linecap="round" stroke-linejoin="round"/>
<path d="M495.206 219.204C483.259 241.87 477.508 250.051 465.418 268.851" stroke="#E35A32" stroke-width="2" stroke-linecap="round" stroke-linejoin="round"/>
<path d="M451.878 276.975C443.934 280.908 414.615 298.132 412.16 307.665" stroke="#E35A32" stroke-width="2" stroke-linecap="round" stroke-linejoin="round"/>
<path d="M540.206 184.406L523.958 161.902C549.964 226.678 539.222 206.314 565.165 245.968C557.772 224.782 540.206 184.406 540.206 184.406Z" fill="#BC6BBA"/>
<path d="M574.47 168.14L605.684 230.108C605.684 230.108 580.933 241.5 565.263 246.158C554.593 227.12 542.904 208.011 534.761 187.773C547.218 183.431 574.47 168.14 574.47 168.14Z" fill="#BC6BBA"/>
<path d="M592.514 259.084C582.251 255.807 576.573 255.112 571.004 249.055C567.655 245.444 565.182 239.848 567.826 233.71C569.388 230.099 565.281 225.829 565.182 222.553C569.198 216.893 568.169 232.256 581.213 240.525C583.572 239.736 585.881 238.805 588.127 237.736C588.127 237.736 588.191 242.42 588.127 243.431C587.604 251.583 588.922 253.803 592.514 259.084Z" fill="#EDC798"/>
<path d="M562.159 234.179C561.742 234.803 561.102 235.244 560.371 235.412C559.639 235.58 558.871 235.462 558.224 235.082" stroke="#8A2D87" stroke-width="2" stroke-linecap="round" stroke-linejoin="round"/>
<path d="M559.702 230.839C559.236 231.303 558.663 231.645 558.033 231.834C557.403 232.023 556.736 232.053 556.091 231.922" stroke="#8A2D87" stroke-width="2" stroke-linecap="round" stroke-linejoin="round"/>
<path d="M552.833 218.554C552.622 218.929 552.334 219.256 551.988 219.513C551.642 219.77 551.246 219.951 550.825 220.045C550.404 220.139 549.969 220.143 549.546 220.057C549.124 219.971 548.724 219.797 548.374 219.547" stroke="#8A2D87" stroke-width="2" stroke-linecap="round" stroke-linejoin="round"/>
<path d="M548.177 210.312C548.095 210.743 547.922 211.151 547.67 211.509C547.417 211.867 547.091 212.166 546.713 212.388C546.335 212.609 545.914 212.747 545.478 212.793C545.043 212.838 544.602 212.789 544.187 212.65" stroke="#8A2D87" stroke-width="2" stroke-linecap="round" stroke-linejoin="round"/>
<path d="M573.702 189.073C571.969 188.982 570.353 189.858 568.846 190.706L565.723 192.467C565.055 192.837 564.396 193.216 563.71 193.55C562.138 194.285 560.522 194.922 558.871 195.454L554.295 197.052C554.077 197.546 553.741 197.979 553.316 198.311C552.89 198.644 552.389 198.865 551.857 198.957" stroke="#8A2D87" stroke-width="2" stroke-linecap="round" stroke-linejoin="round"/>
<path d="M576.112 196.872L575.21 195.815L574.117 197.206C573.458 196.637 572.42 196.953 571.707 197.467C571.072 198.095 570.312 198.584 569.478 198.903C568.774 199.056 567.988 198.839 567.347 199.173C566.156 199.787 566.075 201.945 564.739 202.035C563.944 202.08 563.195 201.268 562.464 201.565C562.106 201.759 561.835 202.082 561.706 202.468C561.566 202.835 561.317 203.15 560.993 203.371C560.641 203.551 560.09 203.371 560.09 202.974L558.808 203.876" stroke="#8A2D87" stroke-width="2" stroke-linecap="round" stroke-linejoin="round"/>
<path d="M537.009 186.166L533.877 163.446" stroke="#8A2D87" stroke-width="2" stroke-linecap="round" stroke-linejoin="round"/>
<path d="M539.266 185.606C540.06 179.495 540.069 173.926 540.882 167.959" stroke="#8A2D87" stroke-width="2" stroke-linecap="round" stroke-linejoin="round"/>
<path d="M636.89 159.636C636.706 160.068 636.697 160.555 636.866 160.993C637.034 161.431 637.367 161.786 637.793 161.983C638.349 162.114 638.927 162.116 639.484 161.989C640.041 161.862 640.562 161.61 641.007 161.252" stroke="#B27F61" stroke-width="2" stroke-linecap="round" stroke-linejoin="round"/>
<path d="M585.348 238.286C584.448 238.534 583.61 238.964 582.883 239.55C582.519 239.841 582.086 240.033 581.626 240.107C581.166 240.181 580.694 240.135 580.257 239.974C579.895 239.74 579.588 239.433 579.354 239.071L571.808 229.765" stroke="#B27F61" stroke-width="2" stroke-linecap="round" stroke-linejoin="round"/>
<path d="M565.326 224.647C566.523 230.319 569.216 235.567 573.125 239.848" stroke="#B27F61" stroke-width="2" stroke-linecap="round" stroke-linejoin="round"/>
<path d="M567.826 233.701C567.416 234.539 567.223 235.467 567.266 236.399C567.308 237.332 567.585 238.238 568.07 239.035C569.057 240.616 570.309 242.014 571.771 243.17" stroke="#B27F61" stroke-width="2" stroke-linecap="round" stroke-linejoin="round"/>
<path d="M566.743 238.115C566.356 238.746 566.146 239.469 566.135 240.209C566.124 240.949 566.312 241.679 566.68 242.321C567.357 243.63 572.746 248.856 574.993 249.967" stroke="#B27F61" stroke-width="2" stroke-linecap="round" stroke-linejoin="round"/>
<path d="M366.124 326.622C365.163 326.901 364.317 327.385 363.68 328.022C363.043 328.659 362.639 329.424 362.513 330.232" stroke="#B27F61" stroke-width="2" stroke-linecap="round" stroke-linejoin="round"/>
<path d="M361.611 324.816C360.955 324.95 360.351 325.277 359.871 325.757C359.39 326.238 359.054 326.851 358.903 327.524" stroke="#B27F61" stroke-width="2" stroke-linecap="round" stroke-linejoin="round"/>
<path d="M422.992 324.816C421.857 325.493 421.01 326.481 420.587 327.625C420.163 328.769 420.185 330.004 420.65 331.135" stroke="#B27F61" stroke-width="2" stroke-linecap="round" stroke-linejoin="round"/>
<path d="M416.673 326.622C416.234 327.226 415.941 327.968 415.825 328.765C415.71 329.562 415.778 330.382 416.021 331.135" stroke="#B27F61" stroke-width="2" stroke-linecap="round" stroke-linejoin="round"/>
<path d="M371.356 329.493C371.511 329.83 371.57 330.216 371.525 330.594C371.48 330.972 371.333 331.325 371.106 331.6C370.828 331.847 370.496 331.997 370.148 332.03C369.799 332.064 369.45 331.98 369.142 331.789C368.806 331.611 368.517 331.333 368.303 330.982C368.09 330.632 367.961 330.221 367.929 329.793C367.935 329.606 367.972 329.422 368.038 329.252C368.105 329.082 368.2 328.929 368.318 328.802C368.436 328.675 368.574 328.577 368.725 328.513C368.875 328.449 369.036 328.42 369.196 328.428L369.115 328.515" stroke="#B27F61" stroke-width="2" stroke-linecap="round" stroke-linejoin="round"/>
<path d="M413.049 329.828C413.099 330.259 413.012 330.696 412.799 331.075C412.587 331.455 412.259 331.758 411.863 331.942C411.414 332.071 410.936 332.069 410.487 331.937C410.038 331.805 409.637 331.547 409.33 331.195C408.989 330.844 408.748 330.409 408.63 329.935C408.513 329.461 408.523 328.965 408.661 328.496C408.746 328.301 408.87 328.125 409.024 327.977C409.178 327.83 409.359 327.714 409.559 327.636C409.758 327.558 409.97 327.521 410.184 327.525C410.398 327.529 410.609 327.574 410.805 327.659L410.669 327.713" stroke="#B27F61" stroke-width="2" stroke-linecap="round" stroke-linejoin="round"/>
<path d="M80.2637 383.271H331.688" stroke="#BC6BBA" stroke-width="2" stroke-linecap="round" stroke-linejoin="round"/>
<path d="M117.938 398.561H331.688" stroke="#BC6BBA" stroke-width="2" stroke-linecap="round" stroke-linejoin="round"/>
<path d="M222.814 412.938C222.784 413.141 222.8 413.347 222.861 413.542C222.922 413.737 223.026 413.916 223.166 414.065C223.302 414.21 223.471 414.321 223.659 414.385C223.847 414.45 224.048 414.468 224.245 414.437H279.448C279.644 414.467 279.844 414.45 280.031 414.385C280.219 414.32 280.387 414.21 280.522 414.065C280.664 413.917 280.769 413.739 280.83 413.543C280.891 413.348 280.906 413.141 280.873 412.938V402.653C280.873 392.904 277.661 388.459 267.85 388.459C258.04 388.459 254.888 392.919 254.888 402.653V405.869H224.22C224.023 405.84 223.822 405.859 223.635 405.923C223.447 405.988 223.277 406.097 223.14 406.241C223.001 406.391 222.897 406.569 222.836 406.764C222.775 406.959 222.759 407.166 222.789 407.368L222.814 412.938Z" fill="#F2B53D"/>
<path d="M191.25 401.726C191.22 401.928 191.236 402.134 191.296 402.329C191.357 402.524 191.461 402.703 191.601 402.852C191.737 402.998 191.906 403.108 192.094 403.173C192.282 403.238 192.484 403.255 192.68 403.224H247.883C248.079 403.255 248.279 403.237 248.466 403.172C248.654 403.107 248.822 402.997 248.957 402.852C249.099 402.705 249.205 402.526 249.266 402.33C249.327 402.135 249.341 401.928 249.309 401.726V391.441C249.309 381.691 246.096 377.247 236.286 377.247C226.475 377.247 223.324 381.706 223.324 391.441V394.657H192.655C192.458 394.627 192.258 394.646 192.07 394.711C191.882 394.775 191.712 394.885 191.575 395.029C191.436 395.178 191.332 395.357 191.271 395.552C191.21 395.747 191.194 395.953 191.224 396.155L191.25 401.726Z" fill="#F2B53D"/>
<path d="M227.676 380.595C230.155 380.83 232.258 388.393 229.962 394.453" stroke="#F8D77D" stroke-width="2" stroke-linecap="round" stroke-linejoin="round"/>
<path d="M227.676 380.595C230.155 380.83 232.258 388.393 229.962 394.453" stroke="#F8D77D" stroke-width="2" stroke-linecap="round" stroke-linejoin="round"/>
<path d="M258.477 392.46C260.956 392.695 263.059 400.258 260.763 406.318" stroke="#F8D77D" stroke-width="2" stroke-linecap="round" stroke-linejoin="round"/>
<path d="M39.6347 417.353L30.4707 348.548H97.1642L85.9637 417.353H39.6347Z" fill="#D66FAB"/>
<path d="M76.2189 318.718C76.2189 318.718 56.7658 306.027 35.3017 307.092C30.1478 307.42 25.1483 308.984 20.7259 311.654C18.272 313.086 30.2259 319.63 30.2259 319.63C30.2259 319.63 10.4877 319.681 9.01125 321.271C5.56735 324.966 2.54499 329.032 0 333.396L3.79797 336.011L17.605 334.431L9.63236 339.308C9.63236 339.308 14.4333 341.51 17.0908 342.32C20.1811 343.263 31.4223 333.493 31.4223 333.493C31.4223 333.493 29.956 343.518 31.5597 343.335C34.8249 342.965 38.0582 342.354 41.2328 341.505C44.1297 340.727 46.9703 339.753 49.735 338.59C50.6463 338.207 56.3279 326.485 56.3279 326.485C56.3279 326.485 54.4341 336.408 55.4014 335.893C69.1321 328.549 76.2189 318.718 76.2189 318.718Z" fill="#46B288"/>
<path d="M68.8726 330.751C68.8726 330.751 63.8375 344.68 75.8983 358.782C78.9173 362.309 83.4535 365.408 88.5701 368.038C91.4771 369.567 93.1062 361.091 93.1062 361.091C93.1062 361.091 103.1 374.144 105.707 374.984C111.848 376.978 118.094 378.632 124.416 379.938L125.557 377.207L116.749 368.201L126.468 373.063C126.468 373.063 126.626 369.704 126.234 367.88C125.776 365.76 108.695 359.139 108.695 359.139C108.695 359.139 121.148 359.272 120.13 358.227C117.937 355.996 115.599 353.913 113.13 351.994C110.655 350.062 108.069 348.268 105.442 346.611C104.536 346.041 87.9744 343.263 87.9744 343.263C87.9744 343.263 100.529 343.691 99.4345 343.09C89.7342 337.858 79.4842 333.72 68.8726 330.751V330.751Z" fill="#46B288"/>
<path d="M50.1016 304.131C50.1016 304.131 63.6337 309.798 77.1709 305.288C80.5311 304.082 83.5581 302.096 86.004 299.493C87.4346 298.041 79.2328 295.457 79.2328 295.457C79.2328 295.457 91.7671 291.981 92.5562 290.589C94.4038 287.333 95.938 283.908 97.1382 280.36L94.4858 279.157L85.8309 282.725L90.4434 277.848C88.7895 277.469 87.1151 277.187 85.4287 277.002C83.3923 276.864 77.1404 285.803 77.1404 285.803C77.1404 285.803 77.1404 278.393 76.1222 278.801C74.0618 279.645 72.0688 280.645 70.1605 281.792C68.3732 282.867 66.6589 284.059 65.0287 285.36C64.4839 285.788 61.974 295.146 61.974 295.146C61.974 295.146 62.2591 287.735 61.6889 288.27C56.899 292.811 52.9728 298.185 50.1016 304.131V304.131Z" fill="#46B288"/>
<path d="M60.6406 343.431C62.9265 335.276 65.3397 326.923 70.6294 320.338C75.919 313.753 84.8845 309.38 92.9131 312C91.5487 316.546 88.4024 320.42 84.6197 323.289C80.837 326.158 76.4434 328.105 71.9785 329.706C75.0652 325.244 79.361 321.759 84.3601 319.66C86.87 318.61 90.281 318.172 91.844 320.394C93.407 322.616 91.8694 325.639 90.0366 327.606C86.5705 331.304 82.0276 333.813 77.0543 334.777" stroke="#136F7A" stroke-width="2" stroke-linecap="round" stroke-linejoin="round"/>
<path d="M61.577 311.037C62.4424 303.723 61.5413 295.92 57.4379 289.809C53.3345 283.698 45.5451 279.769 38.4328 281.655C36.1825 282.246 33.749 283.969 34.0341 286.277C34.2276 287.806 35.5614 288.928 36.8902 289.743C40.639 292.041 44.9421 293.275 49.338 293.311C46.5954 290.986 43.2955 289.417 39.7631 288.758C36.2306 288.098 32.5875 288.371 29.1925 289.549C26.2447 290.615 23.3733 292.607 22.4009 295.584C21.4285 298.56 23.2613 302.474 26.3873 302.719" stroke="#136F7A" stroke-width="2" stroke-linecap="round" stroke-linejoin="round"/>
<path d="M62.5649 319.808C46.3898 320.261 30.4371 323.697 15.5078 329.945" stroke="#2C826E" stroke-width="2" stroke-linecap="round" stroke-linejoin="round"/>
<path d="M49.2766 321.23C43.5141 325.76 38.7565 331.441 35.3066 337.912" stroke="#2C826E" stroke-width="2" stroke-linecap="round" stroke-linejoin="round"/>
<path d="M42.2869 321.23C38.1122 317.716 34.3786 313.708 31.168 309.294" stroke="#2C826E" stroke-width="2" stroke-linecap="round" stroke-linejoin="round"/>
<path d="M65.4619 298.672C71.9499 291.57 80.548 286.745 89.9858 284.911" stroke="#2C826E" stroke-width="2" stroke-linecap="round" stroke-linejoin="round"/>
<path d="M73.9893 337.086C84.7989 350.623 99.2321 360.803 115.604 366.437" stroke="#2C826E" stroke-width="2" stroke-linecap="round" stroke-linejoin="round"/>
<path d="M89.7412 352.172C95.5949 352.955 101.549 351.99 106.857 349.399" stroke="#2C826E" stroke-width="2" stroke-linecap="round" stroke-linejoin="round"/>
<path d="M80.0932 345.76C79.9123 350.357 81.2666 354.884 83.942 358.624" stroke="#2C826E" stroke-width="2" stroke-linecap="round" stroke-linejoin="round"/>
<path d="M33.6168 360.332C51.0265 364.44 69.0856 364.988 86.7119 361.942" stroke="#B43073" stroke-width="2" stroke-linecap="round" stroke-linejoin="round"/>
<path d="M29.4117 406.543C27.0596 405.59 24.2289 407.537 23.6995 410.024C23.17 412.511 24.4886 415.12 26.4232 416.762C28.3578 418.403 30.8117 419.31 33.2351 420.054C51.1405 425.706 70.8176 426.904 88.6314 420.966C90.6678 420.288 92.745 419.483 94.3181 418.015C95.8913 416.547 96.8637 414.259 96.2578 412.195C95.652 410.131 93.0505 408.724 91.1667 409.784" stroke="#B43073" stroke-width="2" stroke-linecap="round" stroke-linejoin="round"/>
<path d="M45.7845 427.75C55.9115 431.241 66.8907 431.384 77.105 428.158" stroke="#B43073" stroke-width="2" stroke-linecap="round" stroke-linejoin="round"/>
</svg>
