<svg width="375" height="201" viewBox="0 0 375 201" fill="none" xmlns="http://www.w3.org/2000/svg">
<path d="M81.2637 130.271H332.688" stroke="#BC6BBA" stroke-width="2" stroke-linecap="round" stroke-linejoin="round"/>
<path d="M118.938 145.561H332.688" stroke="#BC6BBA" stroke-width="2" stroke-linecap="round" stroke-linejoin="round"/>
<path d="M223.814 159.938C223.784 160.141 223.8 160.347 223.861 160.542C223.922 160.737 224.026 160.916 224.166 161.065C224.302 161.21 224.471 161.32 224.659 161.385C224.847 161.45 225.048 161.468 225.245 161.437H280.448C280.644 161.467 280.844 161.45 281.031 161.385C281.219 161.32 281.387 161.21 281.522 161.065C281.664 160.917 281.769 160.739 281.83 160.543C281.891 160.348 281.906 160.141 281.873 159.938V149.653C281.873 139.904 278.661 135.459 268.85 135.459C259.04 135.459 255.888 139.919 255.888 149.653V152.869H225.22C225.023 152.84 224.822 152.859 224.635 152.923C224.447 152.988 224.277 153.097 224.14 153.241C224.001 153.391 223.897 153.569 223.836 153.764C223.775 153.959 223.759 154.166 223.789 154.368L223.814 159.938Z" fill="#F2B53D"/>
<path d="M192.25 148.726C192.22 148.928 192.236 149.134 192.296 149.329C192.357 149.524 192.461 149.703 192.601 149.852C192.737 149.998 192.906 150.108 193.094 150.173C193.282 150.238 193.484 150.255 193.68 150.224H248.883C249.079 150.255 249.279 150.237 249.466 150.172C249.654 150.107 249.822 149.997 249.957 149.852C250.099 149.705 250.205 149.526 250.266 149.33C250.327 149.135 250.341 148.928 250.309 148.726V138.441C250.309 128.691 247.096 124.247 237.286 124.247C227.475 124.247 224.324 128.706 224.324 138.441V141.657H193.655C193.458 141.627 193.258 141.646 193.07 141.711C192.882 141.775 192.712 141.885 192.575 142.029C192.436 142.178 192.332 142.357 192.271 142.552C192.21 142.747 192.194 142.953 192.224 143.155L192.25 148.726Z" fill="#F2B53D"/>
<path d="M228.676 127.595C231.155 127.83 233.258 135.393 230.962 141.453" stroke="#F8D77D" stroke-width="2" stroke-linecap="round" stroke-linejoin="round"/>
<path d="M228.676 127.595C231.155 127.83 233.258 135.393 230.962 141.453" stroke="#F8D77D" stroke-width="2" stroke-linecap="round" stroke-linejoin="round"/>
<path d="M259.477 139.46C261.956 139.695 264.059 147.258 261.763 153.318" stroke="#F8D77D" stroke-width="2" stroke-linecap="round" stroke-linejoin="round"/>
<path d="M80.6347 164.353L71.4707 95.5483H138.164L126.964 164.353H80.6347Z" fill="#D66FAB"/>
<path d="M117.219 65.7177C117.219 65.7177 97.7658 53.0271 76.3017 54.0923C71.1478 54.4196 66.1483 55.9842 61.7259 58.6538C59.272 60.0859 71.2259 66.63 71.2259 66.63C71.2259 66.63 51.4877 66.681 50.0112 68.2712C46.5674 71.9655 43.545 76.0322 41 80.3961L44.798 83.0106L58.605 81.4307L50.6324 86.3082C50.6324 86.3082 55.4333 88.5099 58.0908 89.3203C61.1811 90.2632 72.4223 80.4929 72.4223 80.4929C72.4223 80.4929 70.956 90.518 72.5597 90.3345C75.8249 89.9652 79.0582 89.3537 82.2328 88.5048C85.1297 87.7274 87.9703 86.7534 90.735 85.5895C91.6463 85.2073 97.3279 73.485 97.3279 73.485C97.3279 73.485 95.4341 83.4082 96.4014 82.8934C110.132 75.5492 117.219 65.7177 117.219 65.7177Z" fill="#46B288"/>
<path d="M109.873 77.7507C109.873 77.7507 104.837 91.6798 116.898 105.782C119.917 109.309 124.454 112.408 129.57 115.038C132.477 116.567 134.106 108.091 134.106 108.091C134.106 108.091 144.1 121.144 146.707 121.984C152.848 123.978 159.094 125.632 165.416 126.938L166.557 124.207L157.749 115.201L167.468 120.063C167.468 120.063 167.626 116.704 167.234 114.88C166.776 112.76 149.695 106.139 149.695 106.139C149.695 106.139 162.148 106.272 161.13 105.227C158.937 102.996 156.599 100.913 154.13 98.9935C151.655 97.0619 149.069 95.2679 146.442 93.6115C145.536 93.0407 128.974 90.263 128.974 90.263C128.974 90.263 141.529 90.6911 140.434 90.0897C130.734 84.8582 120.484 80.7199 109.873 77.7507V77.7507Z" fill="#46B288"/>
<path d="M91.1016 51.131C91.1016 51.131 104.634 56.7985 118.171 52.2879C121.531 51.0818 124.558 49.0959 127.004 46.4931C128.435 45.0405 120.233 42.4565 120.233 42.4565C120.233 42.4565 132.767 38.9806 133.556 37.5892C135.404 34.3326 136.938 30.9075 138.138 27.3603L135.486 26.1575L126.831 29.7251L131.443 24.8476C129.789 24.4694 128.115 24.1869 126.429 24.0016C124.392 23.864 118.14 32.8035 118.14 32.8035C118.14 32.8035 118.14 25.393 117.122 25.8007C115.062 26.6446 113.069 27.6447 111.161 28.7924C109.373 29.8671 107.659 31.0589 106.029 32.3601C105.484 32.7882 102.974 42.1456 102.974 42.1456C102.974 42.1456 103.259 34.7351 102.689 35.2703C97.899 39.8112 93.9728 45.1853 91.1016 51.131V51.131Z" fill="#46B288"/>
<path d="M101.641 90.431C103.927 82.2763 106.34 73.9229 111.629 67.3381C116.919 60.7532 125.884 56.3803 133.913 59C132.549 63.5462 129.402 67.4196 125.62 70.289C121.837 73.1584 117.443 75.1054 112.978 76.7057C116.065 72.2445 120.361 68.7592 125.36 66.6602C127.87 65.6103 131.281 65.172 132.844 67.3941C134.407 69.6163 132.869 72.6386 131.037 74.6059C127.571 78.3039 123.028 80.8133 118.054 81.7769" stroke="#136F7A" stroke-width="2" stroke-linecap="round" stroke-linejoin="round"/>
<path d="M102.577 58.0368C103.442 50.7231 102.541 42.9201 98.4379 36.8093C94.3345 30.6984 86.5451 26.7689 79.4328 28.6546C77.1825 29.2458 74.749 30.9685 75.0341 33.2773C75.2276 34.8063 76.5614 35.9275 77.8902 36.743C81.639 39.0414 85.9421 40.2747 90.338 40.3107C87.5954 37.9864 84.2955 36.4173 80.7631 35.7578C77.2306 35.0982 73.5875 35.371 70.1925 36.5493C67.2447 37.6145 64.3733 39.6073 63.4009 42.5838C62.4285 45.5602 64.2613 49.4744 67.3873 49.7191" stroke="#136F7A" stroke-width="2" stroke-linecap="round" stroke-linejoin="round"/>
<path d="M103.565 66.8081C87.3898 67.2608 71.4371 70.6974 56.5078 76.9453" stroke="#2C826E" stroke-width="2" stroke-linecap="round" stroke-linejoin="round"/>
<path d="M90.2766 68.2302C84.5141 72.7599 79.7565 78.4408 76.3066 84.9115" stroke="#2C826E" stroke-width="2" stroke-linecap="round" stroke-linejoin="round"/>
<path d="M83.2869 68.23C79.1122 64.7159 75.3786 60.7079 72.168 56.2937" stroke="#2C826E" stroke-width="2" stroke-linecap="round" stroke-linejoin="round"/>
<path d="M106.462 45.6723C112.95 38.57 121.548 33.7454 130.986 31.9114" stroke="#2C826E" stroke-width="2" stroke-linecap="round" stroke-linejoin="round"/>
<path d="M114.989 84.0857C125.799 97.6231 140.232 107.803 156.604 113.437" stroke="#2C826E" stroke-width="2" stroke-linecap="round" stroke-linejoin="round"/>
<path d="M130.741 99.1717C136.595 99.9547 142.549 98.9902 147.857 96.3992" stroke="#2C826E" stroke-width="2" stroke-linecap="round" stroke-linejoin="round"/>
<path d="M121.093 92.7603C120.912 97.3573 122.267 101.884 124.942 105.624" stroke="#2C826E" stroke-width="2" stroke-linecap="round" stroke-linejoin="round"/>
<path d="M74.6169 107.332C92.0266 111.44 110.086 111.988 127.712 108.942" stroke="#B43073" stroke-width="2" stroke-linecap="round" stroke-linejoin="round"/>
<path d="M70.4117 153.543C68.0596 152.59 65.2289 154.537 64.6995 157.024C64.17 159.511 65.4886 162.12 67.4232 163.762C69.3578 165.403 71.8117 166.31 74.2351 167.054C92.1405 172.706 111.818 173.904 129.631 167.966C131.668 167.288 133.745 166.483 135.318 165.015C136.891 163.547 137.864 161.259 137.258 159.195C136.652 157.131 134.05 155.724 132.167 156.784" stroke="#B43073" stroke-width="2" stroke-linecap="round" stroke-linejoin="round"/>
<path d="M86.7845 174.75C96.9115 178.241 107.891 178.384 118.105 175.158" stroke="#B43073" stroke-width="2" stroke-linecap="round" stroke-linejoin="round"/>
</svg>
