<svg width="743" height="444" viewBox="0 0 743 444" fill="none" xmlns="http://www.w3.org/2000/svg">
<path d="M131.584 173.443C141.962 170.996 152.447 168.757 162.959 166.599C172.533 164.712 179.457 163.159 187.505 161.751C185.911 162.898 184.304 164.044 182.724 165.2C179.181 167.533 176.098 170.164 173.551 173.027C171.918 174.542 170.497 176.156 169.306 177.848C166.628 182.426 163.722 186.94 162.705 191.851C161.967 193.719 161.421 195.62 161.071 197.539C160.227 204.508 159.504 212.228 161.218 218.89C162.008 223.557 163.813 228.12 166.575 232.433C167.365 235.24 169.895 237.461 172.105 239.8C172.992 241.071 174.177 242.239 175.613 243.257C178.747 244.91 181.532 246.932 184.987 248.313C188.308 249.406 192.057 249.749 195.566 250.48C199.451 250.831 203.384 250.87 207.283 250.597C221.034 249.675 234.485 247.305 247.148 243.573C245.554 245.244 243.987 246.905 242.394 248.566C239.73 251.292 237.375 254.15 235.35 257.116C232.672 261.946 229.699 266.74 227.128 271.606C225.213 276.887 223.767 282.241 222.026 287.55C220.593 293.869 220.687 300.279 219.911 306.635C220.071 312.666 220.861 318.697 221.584 324.691C222.923 330.397 224.785 336.067 226.82 341.682C229.156 346.398 231.86 351.027 234.922 355.55C238.229 359.332 241.832 362.994 245.715 366.519C249.732 369.11 254.111 371.331 258.249 373.741C263.257 376.585 270.153 376.82 276.179 378.147C285.191 379.429 294.07 376.441 302.774 375.168C311.478 373.895 318.843 370.654 326.315 367.792C335.459 364.261 344.323 360.41 352.869 356.254C370.897 347.459 388.135 337.951 404.491 327.779C419.315 318.327 433.228 308.269 446.954 298.094C440.084 304.82 433.563 311.718 426.988 318.561C423.244 322.412 420.102 326.515 417.614 330.803C415.378 334.74 413.048 338.658 410.919 342.612C409.218 346.22 407.876 349.899 406.902 353.627C404.063 360.976 403.822 368.559 403.099 376.098C403.099 381.289 404.049 386.462 404.438 391.644C405.308 396.917 407.464 402.063 408.991 407.263C411.239 411.919 413.876 416.486 416.891 420.941C420.346 424.552 423.453 428.299 427.524 431.585C429.876 433.204 432.391 434.712 435.049 436.099C437.587 437.721 440.375 439.156 443.365 440.378C447.61 441.823 452.391 442.346 456.944 443.222C458.786 443.541 460.669 443.744 462.568 443.827C470.9 444.057 479.24 443.516 487.354 442.22C501.242 439.91 514.861 436.919 528.103 433.273C566.007 422.621 601.483 408.406 633.476 391.048C645.446 384.475 656.508 377.183 666.525 369.263C671.516 365.299 676.209 361.168 680.586 356.886L679.996 357.509C684.63 353.103 688.968 348.553 693.253 343.967C706.042 330.223 716.737 315.644 725.177 300.451C736.345 281.212 745.719 260.51 742.278 239.646C741.22 261.964 722.191 281.131 701.81 297.688C684.402 310.553 680.05 312.91 662.976 321.161C649.92 327.427 635.19 331.733 620.42 335.751C592.848 342.829 585.898 343.605 569.534 346.377C556.425 348.264 543.248 350.214 530.004 351.794C541.44 343.244 552.769 334.64 564.125 326.055C585.845 309.56 607.632 293.084 627.892 275.759C636.873 268.067 645.287 260.098 653.134 251.852C662.682 241.921 672.31 232.053 680.398 221.563C687.203 212.642 693.161 203.439 698.235 194.009C701.77 187.897 705.292 181.794 708.157 175.528C713.032 165.516 716.031 155.133 718.776 144.778C719.794 139.804 720.209 134.802 720.691 129.8C721.26 126.075 721.514 122.332 721.455 118.587C720.839 113.08 720.504 107.564 719.727 102.075C718.38 96.6293 716.628 91.2327 714.478 85.9055C710.822 79.9108 708.372 73.4647 702.426 68.2735C699.614 65.4838 697.324 62.3781 693.494 60.1482C688.727 57.6022 684.442 54.5597 679.246 52.411C678.294 52.0366 677.284 51.7338 676.233 51.5082C671.509 50.4792 666.686 49.6679 661.798 49.0796C656.321 48.7546 651.005 49.9283 645.729 50.8853C629.69 53.4389 614.698 58.3739 601.847 65.3303C590.331 71.2257 579.082 77.392 568.155 83.7388C552.715 92.9655 537.718 102.499 522.974 112.223C523.282 108.765 523.496 105.298 523.724 101.849C522.988 95.7011 522.733 89.5168 521.729 83.3866C519.854 77.6628 518.528 71.8035 516.051 66.188C513.145 61.385 510.775 56.4105 507.508 51.7429C504.12 47.915 500.397 44.2224 496.795 40.4848C492.778 36.6117 486.497 34.1019 481.395 30.9059C476.039 28.3058 469.169 28.053 463.103 26.6898C456.476 25.5667 449.532 25.6102 442.937 26.8162C435.772 28.1975 428.354 29.1364 421.578 31.3303C404.732 36.5124 390.431 44.5023 376.558 52.6277C354.117 65.6481 333.026 79.6896 313.433 94.6538C298.408 105.876 283.852 117.369 268.921 128.636C263.873 132.5 258.838 136.382 253.723 140.219C252.183 131.841 247.804 123.454 236.703 119.301C233.074 118.47 229.231 117.811 225.468 118.696C214.608 120.086 205.716 124.663 197.441 129.349C173.337 142.62 151.751 157.815 129.508 172.449L126 174.788C127.901 174.318 129.749 173.885 131.584 173.443Z" fill="#FFF2FF"/>
<path d="M40.2637 325.149H291.688" stroke="#BC6BBA" stroke-width="2" stroke-linecap="round" stroke-linejoin="round"/>
<path d="M77.9379 340.439H291.688" stroke="#BC6BBA" stroke-width="2" stroke-linecap="round" stroke-linejoin="round"/>
<path d="M182.814 354.817C182.784 355.019 182.8 355.225 182.861 355.42C182.922 355.615 183.026 355.794 183.166 355.943C183.302 356.089 183.471 356.199 183.659 356.264C183.847 356.329 184.048 356.346 184.245 356.315H239.448C239.644 356.346 239.844 356.328 240.031 356.263C240.219 356.198 240.387 356.088 240.522 355.943C240.664 355.796 240.769 355.617 240.83 355.421C240.891 355.226 240.906 355.019 240.873 354.817V344.532C240.873 334.782 237.661 330.338 227.85 330.338C218.04 330.338 214.888 334.797 214.888 344.532V347.748H184.22C184.023 347.718 183.822 347.737 183.635 347.802C183.447 347.866 183.277 347.976 183.14 348.12C183.001 348.269 182.897 348.448 182.836 348.643C182.775 348.838 182.759 349.044 182.789 349.246L182.814 354.817Z" fill="#F2B53D"/>
<path d="M151.25 343.604C151.22 343.806 151.236 344.013 151.296 344.208C151.357 344.403 151.461 344.581 151.601 344.731C151.737 344.876 151.906 344.986 152.094 345.051C152.282 345.116 152.484 345.134 152.68 345.103H207.883C208.079 345.133 208.279 345.115 208.466 345.051C208.654 344.986 208.822 344.876 208.957 344.731C209.099 344.583 209.205 344.404 209.266 344.209C209.327 344.013 209.341 343.806 209.309 343.604V333.319C209.309 323.569 206.096 319.125 196.286 319.125C186.475 319.125 183.324 323.585 183.324 333.319V336.535H152.655C152.458 336.506 152.258 336.524 152.07 336.589C151.882 336.654 151.712 336.763 151.575 336.907C151.436 337.056 151.332 337.235 151.271 337.43C151.21 337.625 151.194 337.831 151.224 338.034L151.25 343.604Z" fill="#F2B53D"/>
<path d="M187.676 322.474C190.155 322.708 192.258 330.272 189.962 336.331" stroke="#F8D77D" stroke-width="2" stroke-linecap="round" stroke-linejoin="round"/>
<path d="M187.676 322.474C190.155 322.708 192.258 330.272 189.962 336.331" stroke="#F8D77D" stroke-width="2" stroke-linecap="round" stroke-linejoin="round"/>
<path d="M218.477 334.339C220.956 334.573 223.059 342.136 220.763 348.196" stroke="#F8D77D" stroke-width="2" stroke-linecap="round" stroke-linejoin="round"/>
<path d="M39.6347 359.231L30.4707 290.427H97.1642L85.9637 359.231H39.6347Z" fill="#D66FAB"/>
<path d="M76.2189 260.596C76.2189 260.596 56.7658 247.906 35.3017 248.971C30.1478 249.298 25.1483 250.863 20.7259 253.532C18.272 254.964 30.2259 261.508 30.2259 261.508C30.2259 261.508 10.4877 261.559 9.01125 263.15C5.56735 266.844 2.54499 270.911 0 275.274L3.79797 277.889L17.605 276.309L9.63236 281.187C9.63236 281.187 14.4333 283.388 17.0908 284.199C20.1811 285.142 31.4223 275.371 31.4223 275.371C31.4223 275.371 29.956 285.396 31.5597 285.213C34.8249 284.844 38.0582 284.232 41.2328 283.383C44.1297 282.606 46.9703 281.632 49.735 280.468C50.6463 280.086 56.3279 268.363 56.3279 268.363C56.3279 268.363 54.4341 278.287 55.4014 277.772C69.1321 270.428 76.2189 260.596 76.2189 260.596Z" fill="#46B288"/>
<path d="M68.8726 272.629C68.8726 272.629 63.8375 286.558 75.8983 300.661C78.9173 304.188 83.4535 307.286 88.5701 309.916C91.4771 311.445 93.1062 302.969 93.1062 302.969C93.1062 302.969 103.1 316.022 105.707 316.863C111.848 318.856 118.094 320.51 124.416 321.817L125.557 319.085L116.749 310.079L126.468 314.941C126.468 314.941 126.626 311.583 126.234 309.758C125.776 307.638 108.695 301.017 108.695 301.017C108.695 301.017 121.148 301.15 120.13 300.105C117.937 297.874 115.599 295.792 113.13 293.872C110.655 291.94 108.069 290.146 105.442 288.49C104.536 287.919 87.9744 285.141 87.9744 285.141C87.9744 285.141 100.529 285.57 99.4345 284.968C89.7342 279.737 79.4842 275.598 68.8726 272.629V272.629Z" fill="#46B288"/>
<path d="M50.1016 246.009C50.1016 246.009 63.6337 251.677 77.1709 247.166C80.5311 245.96 83.5581 243.974 86.004 241.371C87.4346 239.919 79.2328 237.335 79.2328 237.335C79.2328 237.335 91.7671 233.859 92.5562 232.468C94.4038 229.211 95.938 225.786 97.1382 222.239L94.4858 221.036L85.8309 224.604L90.4434 219.726C88.7895 219.348 87.1151 219.065 85.4287 218.88C83.3923 218.742 77.1404 227.682 77.1404 227.682C77.1404 227.682 77.1404 220.271 76.1222 220.679C74.0618 221.523 72.0688 222.523 70.1605 223.671C68.3732 224.746 66.6589 225.937 65.0287 227.238C64.4839 227.667 61.974 237.024 61.974 237.024C61.974 237.024 62.2591 229.614 61.6889 230.149C56.899 234.69 52.9728 240.064 50.1016 246.009V246.009Z" fill="#46B288"/>
<path d="M60.6406 285.309C62.9265 277.155 65.3397 268.801 70.6294 262.216C75.919 255.632 84.8845 251.259 92.9131 253.878C91.5487 258.425 88.4024 262.298 84.6197 265.167C80.837 268.037 76.4434 269.984 71.9785 271.584C75.0652 267.123 79.361 263.638 84.3601 261.539C86.87 260.489 90.281 260.05 91.844 262.273C93.407 264.495 91.8694 267.517 90.0366 269.484C86.5705 273.182 82.0276 275.692 77.0543 276.655" stroke="#136F7A" stroke-width="2" stroke-linecap="round" stroke-linejoin="round"/>
<path d="M61.577 252.915C62.4424 245.602 61.5413 237.799 57.4379 231.688C53.3345 225.577 45.5451 221.647 38.4328 223.533C36.1825 224.124 33.749 225.847 34.0341 228.156C34.2276 229.685 35.5614 230.806 36.8902 231.621C40.639 233.92 44.9421 235.153 49.338 235.189C46.5954 232.865 43.2955 231.296 39.7631 230.636C36.2306 229.977 32.5875 230.249 29.1925 231.428C26.2447 232.493 23.3733 234.486 22.4009 237.462C21.4285 240.439 23.2613 244.353 26.3873 244.597" stroke="#136F7A" stroke-width="2" stroke-linecap="round" stroke-linejoin="round"/>
<path d="M62.5649 261.687C46.3898 262.139 30.4371 265.576 15.5078 271.824" stroke="#2C826E" stroke-width="2" stroke-linecap="round" stroke-linejoin="round"/>
<path d="M49.2766 263.109C43.5141 267.638 38.7565 273.319 35.3066 279.79" stroke="#2C826E" stroke-width="2" stroke-linecap="round" stroke-linejoin="round"/>
<path d="M42.2869 263.108C38.1122 259.594 34.3786 255.586 31.168 251.172" stroke="#2C826E" stroke-width="2" stroke-linecap="round" stroke-linejoin="round"/>
<path d="M65.4619 240.551C71.9499 233.448 80.548 228.624 89.9858 226.79" stroke="#2C826E" stroke-width="2" stroke-linecap="round" stroke-linejoin="round"/>
<path d="M73.9893 278.964C84.7989 292.501 99.2321 302.681 115.604 308.316" stroke="#2C826E" stroke-width="2" stroke-linecap="round" stroke-linejoin="round"/>
<path d="M89.7412 294.05C95.5949 294.833 101.549 293.869 106.857 291.278" stroke="#2C826E" stroke-width="2" stroke-linecap="round" stroke-linejoin="round"/>
<path d="M80.0932 287.639C79.9123 292.236 81.2666 296.762 83.942 300.503" stroke="#2C826E" stroke-width="2" stroke-linecap="round" stroke-linejoin="round"/>
<path d="M33.6168 302.21C51.0265 306.319 69.0856 306.867 86.7119 303.821" stroke="#B43073" stroke-width="2" stroke-linecap="round" stroke-linejoin="round"/>
<path d="M29.4117 348.421C27.0596 347.468 24.2289 349.415 23.6995 351.902C23.17 354.389 24.4886 356.999 26.4232 358.64C28.3578 360.281 30.8117 361.188 33.2351 361.932C51.1405 367.585 70.8176 368.782 88.6314 362.845C90.6678 362.167 92.745 361.362 94.3181 359.894C95.8913 358.426 96.8637 356.137 96.2578 354.073C95.652 352.009 93.0505 350.603 91.1667 351.663" stroke="#B43073" stroke-width="2" stroke-linecap="round" stroke-linejoin="round"/>
<path d="M45.7845 369.628C55.9115 373.119 66.8907 373.262 77.105 370.036" stroke="#B43073" stroke-width="2" stroke-linecap="round" stroke-linejoin="round"/>
<path d="M658.156 101.015H397.604V111.294H658.156V101.015Z" fill="#F8D77D"/>
<path d="M620.868 54.8105H360.316V65.0889H620.868V54.8105Z" fill="#F8D77D"/>
<path d="M296.396 221.503L330.789 195.922L355.36 188.945L356.572 155.219C388.292 142.8 449.28 148.568 484.072 148.194C497.669 160.286 495.688 161.949 506.189 147.033H529.541L613.463 150.521L619.601 157.499L622.061 185.408C632.078 184.476 639.518 187.469 649.086 190.057L687.157 208.667L684 345.878L304.983 349.427L296.396 221.503Z" fill="#FBEAB3"/>
<path d="M303.115 349.137L305.539 395.65H314.137L317.828 364.252L672.965 357.233L674.177 389.791L683.999 388.63L685.211 345.606L303.115 349.137Z" fill="#EE9D33"/>
<path d="M356.486 196.472C362.673 195.807 368.241 201.061 370.114 206.98C371.986 212.899 371.053 219.296 370.114 225.427" stroke="#F8D77D" stroke-width="2" stroke-linecap="round" stroke-linejoin="round"/>
<path d="M488.936 163.792C491.191 173.953 492.11 184.363 491.669 194.761C487.04 194.516 482.487 196.016 478.914 198.963L491.002 202.82C486.076 207.863 494.111 217.978 489.033 222.869C487.676 224.175 485.731 224.629 483.883 225.003C452.804 231.336 420.819 231.871 389.545 226.582" stroke="#F8D77D" stroke-width="2" stroke-linecap="round" stroke-linejoin="round"/>
<path d="M618.056 192.717C615.077 193.437 612.296 194.812 609.917 196.741C607.538 198.669 605.621 201.103 604.304 203.865C602.987 206.627 602.305 209.648 602.306 212.706C602.308 215.765 602.994 218.784 604.313 221.545" stroke="#F8D77D" stroke-width="2" stroke-linecap="round" stroke-linejoin="round"/>
<path d="M366.424 242.67C367.03 248.553 362.958 254.061 357.941 257.247C352.923 260.434 347.07 261.861 341.502 263.898C335.933 265.936 330.31 268.82 327.196 273.85C324.081 278.881 323.996 285.175 324.057 291.106C324.184 304.298 323.996 292.962 327.196 308.15C408.005 308.15 516.277 304.516 555.893 306.149C582.863 307.255 639.515 303.545 653.211 303.545C654.974 293.012 654.618 275.198 648.752 266.25C638.451 250.421 613.754 248.898 603.913 232.779" stroke="#F8D77D" stroke-width="2" stroke-linecap="round" stroke-linejoin="round"/>
<path d="M687.157 218.474C686.423 258.517 682.915 298.652 682.176 338.701C682.079 338.272 680.77 337.849 680.673 337.425" stroke="#F8D77D" stroke-width="2" stroke-linecap="round" stroke-linejoin="round"/>
<path d="M299.528 227.543C298.306 267.497 299.89 307.487 304.267 347.22L304.624 344.082" stroke="#F8D77D" stroke-width="2" stroke-linecap="round" stroke-linejoin="round"/>
<path d="M516.391 223.976C523.196 221.696 530.6 223.432 537.774 223.329C544.949 223.226 553.292 219.985 554.741 212.966L553.25 223.655C567.233 220.516 581.694 220.117 595.829 222.482" stroke="#F8D77D" stroke-width="2" stroke-linecap="round" stroke-linejoin="round"/>
<path d="M306.395 347.891C464.731 346.186 522.483 343.266 680.819 341.555" stroke="#EB862A" stroke-width="2" stroke-linecap="round" stroke-linejoin="round"/>
<path d="M313.418 391.877L316.672 364.204C323.406 364.385 330.129 363.539 336.607 361.695" stroke="#EB862A" stroke-width="2" stroke-linecap="round" stroke-linejoin="round"/>
<path d="M545.732 359.445C588.432 356.096 631.272 356.839 674.111 356.839L676.989 387.07" stroke="#EB862A" stroke-width="2" stroke-linecap="round" stroke-linejoin="round"/>
<path d="M481.989 1H415.336V54.2061H481.989V1Z" fill="#D66FAB"/>
<path d="M418.452 3.0859C418.984 4.41051 419.904 5.54413 421.092 6.33861C422.28 7.13308 423.681 7.55146 425.111 7.53905C426.541 7.52664 427.934 7.08402 429.108 6.26905C430.282 5.45408 431.183 4.30467 431.692 2.97103C431.991 4.24569 432.698 5.38875 433.705 6.22836C434.712 7.06797 435.965 7.55876 437.275 7.62693C438.585 7.6951 439.883 7.33698 440.971 6.6064C442.06 5.87582 442.882 4.81227 443.313 3.57564C444.087 5.12804 445.32 6.4059 446.845 7.23646C448.37 8.06702 450.114 8.4102 451.841 8.21961C453.569 8.02901 455.195 7.31383 456.502 6.17077C457.808 5.0277 458.731 3.5119 459.146 1.82831C459.422 3.26596 460.173 4.56996 461.278 5.5321C462.384 6.49424 463.78 7.05903 465.245 7.13629C466.71 7.21355 468.159 6.79883 469.36 5.95834C470.561 5.11785 471.445 3.90006 471.871 2.49943C472.054 3.59553 472.611 4.59517 473.446 5.33025C474.281 6.06533 475.345 6.49101 476.457 6.53571C477.57 6.58041 478.664 6.2414 479.556 5.57569C480.448 4.90998 481.083 3.95817 481.354 2.88034" stroke="#B43073" stroke-width="2" stroke-linecap="round" stroke-linejoin="round"/>
<path d="M471.144 2.6864C471.495 18.9687 471.289 36.5448 471.289 52.428" stroke="#B43073" stroke-width="2" stroke-linecap="round" stroke-linejoin="round"/>
<path d="M443.308 5.02686C444.168 22.0165 443.811 35.445 444.671 52.4286" stroke="#B43073" stroke-width="2" stroke-linecap="round" stroke-linejoin="round"/>
<path d="M432.122 5.02686C430.304 23.7155 429.371 34.3023 429.819 52.4286" stroke="#B43073" stroke-width="2" stroke-linecap="round" stroke-linejoin="round"/>
<path d="M459.213 1.60437C459.418 20.7888 459.019 33.262 459.213 52.4464" stroke="#B43073" stroke-width="2" stroke-linecap="round" stroke-linejoin="round"/>
<path d="M630.107 183.766C623.247 183.026 617.055 188.866 614.978 195.501C612.902 202.136 613.931 209.213 614.978 216.037" stroke="#FDC5FF" stroke-width="2" stroke-linecap="round" stroke-linejoin="round"/>
<path d="M497.18 147.759C494.679 159.07 493.66 170.658 494.148 182.232C499.287 181.954 504.343 183.62 508.31 186.899L494.915 191.195C500.385 196.81 491.467 208.066 497.108 213.509C498.616 214.963 500.773 215.468 502.822 215.883C537.338 222.933 572.862 223.53 607.595 217.644" stroke="#FDC5FF" stroke-width="2" stroke-linecap="round" stroke-linejoin="round"/>
<path d="M605.563 135.239C614.96 139.102 619.663 151.55 615.177 160.658C610.738 161.451 606.6 163.439 603.207 166.408L614.942 165.406C615.627 172.636 615.124 179.93 613.453 186.998" stroke="#FDC5FF" stroke-width="2" stroke-linecap="round" stroke-linejoin="round"/>
<path d="M638.14 186.474C649.655 188.669 660.465 193.625 669.643 200.917" stroke="#FDC5FF" stroke-width="2" stroke-linecap="round" stroke-linejoin="round"/>
<path d="M663.912 165.496C645.519 159.817 626.265 157.443 607.043 158.483C602.187 158.753 596.988 159.16 592.754 156.758C589.468 154.881 587.257 151.55 585.749 148.084C581.859 139.183 581.868 128.974 583.944 119.496C586.02 110.018 590.091 101.109 594.153 92.2896C596.554 87.0812 599.163 81.6291 603.866 78.3434C612.658 72.1872 625.322 76.2131 633.085 83.633C643.854 93.9145 648.286 109.07 651.328 123.648C654.37 138.227 656.654 153.419 663.912 165.496Z" fill="#DD3260"/>
<path d="M624.051 76.4385L640.651 78.948C640.991 78.9462 641.327 79.0275 641.629 79.1848C641.931 79.342 642.19 79.5706 642.384 79.8506C642.582 80.1352 642.712 80.4612 642.765 80.8037C642.818 81.1462 642.793 81.4963 642.691 81.8275L635.153 128.766C635.152 129.116 635.07 129.461 634.913 129.775C634.757 130.088 634.53 130.361 634.251 130.572C633.981 130.779 633.666 130.919 633.331 130.979C632.997 131.039 632.652 131.017 632.328 130.915L623.301 129.615C622.961 129.617 622.625 129.535 622.323 129.378C622.021 129.221 621.762 128.992 621.568 128.712C621.368 128.428 621.237 128.103 621.184 127.76C621.13 127.417 621.157 127.066 621.261 126.735L622.299 122.854L617.1 122.069C601.393 119.695 595.039 113.042 597.629 95.8911C600.22 78.7403 608.317 74.0645 624.051 76.4385Z" fill="#EDC798"/>
<path d="M609.508 112.501C611.252 113.68 613.249 114.433 615.338 114.7C617.427 114.967 619.549 114.74 621.534 114.038C623.519 113.336 625.312 112.177 626.768 110.656C628.224 109.135 629.302 107.293 629.917 105.279" stroke="#8E5F35" stroke-width="2" stroke-linecap="round" stroke-linejoin="round"/>
<path d="M615.51 101.795C614.114 101.795 612.983 100.663 612.983 99.2674C612.983 97.8715 614.114 96.7399 615.51 96.7399C616.906 96.7399 618.038 97.8715 618.038 99.2674C618.038 100.663 616.906 101.795 615.51 101.795Z" fill="#0071BC"/>
<path d="M602.881 97.4349C601.486 97.4349 600.354 96.3033 600.354 94.9074C600.354 93.5115 601.486 92.3799 602.881 92.3799C604.277 92.3799 605.409 93.5115 605.409 94.9074C605.409 96.3033 604.277 97.4349 602.881 97.4349Z" fill="#0071BC"/>
<path d="M616.088 107.119C612.766 106.051 611.388 101.095 613.011 96.0499C614.633 91.005 618.642 87.7816 621.964 88.8501C625.286 89.9186 626.664 94.8745 625.041 99.9194C623.419 104.964 619.41 108.188 616.088 107.119Z" stroke="#FCF8E6" stroke-width="2" stroke-linecap="round" stroke-linejoin="round"/>
<path d="M603.106 101.379C600.183 100.439 598.988 96.0215 600.439 91.5129C601.889 87.0043 605.434 84.1117 608.358 85.052C611.281 85.9923 612.476 90.4095 611.025 94.9181C609.575 99.4266 606.03 102.319 603.106 101.379Z" stroke="#FCF8E6" stroke-width="2" stroke-linecap="round" stroke-linejoin="round"/>
<path d="M612.621 96.8661C612.706 96.4245 612.622 95.9674 612.387 95.5843C612.284 95.4225 612.132 95.2977 611.954 95.228C611.775 95.1582 611.579 95.147 611.394 95.1961C611.181 95.2728 610.991 95.4027 610.843 95.5733C610.694 95.7439 610.592 95.9497 610.545 96.171" stroke="#FCF8E6" stroke-width="2" stroke-linecap="round" stroke-linejoin="round"/>
<path d="M621.901 74.0736C619.563 80.9881 624.528 87.027 628.427 93.6706C633.636 102.535 643.376 105.793 645.379 112.798C647.871 121.518 642.581 128.144 647.997 135.717C651.915 141.205 660.373 142.659 665.076 147.632C673.814 156.867 639.801 197.821 649.568 206.152C655.562 211.243 659.046 219.034 666.971 221.191C676.702 223.836 679.609 215.558 687.841 216.172C691.073 216.407 694.006 219.674 698.195 221.38C700.957 213.563 708.061 207.732 713.54 201.188C719.019 194.643 723.081 185.653 718.866 178.395C714.65 171.138 703.349 168.276 700.235 160.504C695.721 149.212 709.009 139.942 700.867 125.056C697.518 118.936 683.012 115.127 676.865 111.074C666.556 104.259 670.627 89.5905 658.595 90.2585C644.387 91.0348 644.711 65.9406 621.901 74.0736Z" fill="#DD3260"/>
<path d="M601.754 84.978C599.398 87.9026 597.141 96.0989 596.771 99.6374C596.401 103.176 596.464 106.859 594.794 110.09C593.44 112.69 591.066 114.721 589.586 117.258C586.264 122.971 588.042 129.949 588.683 136.963C582.563 137.45 567.344 130.644 567.173 124C567.001 117.357 566.27 115.371 571.767 111.074C576.506 107.355 581.606 107.193 584.152 101.957C586.616 96.8752 586.526 89.6538 590.254 83.9038C594.867 76.8088 601.889 72.7648 612.821 70.6165C625.873 68.0529 634.413 72.9905 634.413 72.9905C634.413 72.9905 622.236 73.821 621.27 76.872C616.567 75.1208 605.491 80.3022 601.754 84.978Z" fill="#DD3260"/>
<path d="M634.946 75.9242C639.044 74.3536 643.602 76.5381 647.069 79.219C650.535 81.8999 653.748 85.2218 657.964 86.4404C661.981 87.5687 666.521 86.6119 670.222 88.5346C677.353 92.2536 676.469 103.501 682.67 108.619C687.382 112.51 694.315 111.453 700.209 113.069C704.419 114.334 708.088 116.965 710.638 120.546C713.187 124.127 714.473 128.455 714.291 132.847C713.966 137.64 711.871 142.117 710.68 146.775C709.488 151.433 709.416 156.858 712.548 160.495C714.724 163.014 718.028 164.196 721.223 165.099C724.419 166.002 727.768 166.796 730.421 168.791C733.075 170.786 734.835 174.433 733.554 177.502" stroke="#CE0E47" stroke-width="2" stroke-linecap="round" stroke-linejoin="round"/>
<path d="M624.618 82.3964C625.197 88.3707 627.505 94.0467 631.26 98.7296C635.014 103.413 640.053 106.899 645.758 108.763C649.703 109.982 653.882 110.397 657.601 112.266C661.32 114.134 664.408 118.115 663.46 122.132C662.747 125.183 659.921 127.44 659.389 130.518C658.748 134.237 661.772 137.739 665.211 139.265C668.65 140.79 672.523 141.07 676.178 141.973C679.834 142.875 683.58 145.006 684.781 148.589C686.695 154.312 681.297 159.629 679.365 165.343C678.553 167.733 678.355 170.288 678.787 172.775C679.219 175.261 680.268 177.6 681.838 179.576C683.408 181.552 685.449 183.102 687.773 184.085C690.098 185.068 692.632 185.452 695.144 185.202" stroke="#CE0E47" stroke-width="2" stroke-linecap="round" stroke-linejoin="round"/>
<path d="M593.702 99.8089C591.2 101.385 588.918 103.285 586.914 105.46C585.914 106.554 585.139 107.835 584.634 109.229C584.13 110.623 583.904 112.103 583.972 113.584C584.251 116.472 586.003 119.054 586.328 121.942C586.491 123.571 586.202 125.214 585.491 126.689C584.781 128.163 583.677 129.414 582.302 130.301C580.501 131.253 578.583 131.963 576.597 132.413C574.647 133.018 572.661 133.858 571.433 135.482C570.206 137.107 570.052 139.698 571.596 141.025" stroke="#CE0E47" stroke-width="2" stroke-linecap="round" stroke-linejoin="round"/>
<path d="M694.558 227.04C690.411 224.815 686.928 221.53 684.466 217.519C682.003 213.509 680.648 208.917 680.54 204.212" stroke="#CE0E47" stroke-width="2" stroke-linecap="round" stroke-linejoin="round"/>
<path d="M707.222 186.817C709.515 189.814 711.081 193.301 711.797 197.006C712.513 200.71 712.359 204.531 711.347 208.165" stroke="#CE0E47" stroke-width="2" stroke-linecap="round" stroke-linejoin="round"/>
<path d="M609.237 76.3031C601.031 71.3926 589.378 73.4687 583.321 80.9068C581.723 82.8836 580.514 85.1493 578.988 87.2255C577.57 89.3628 575.504 90.989 573.094 91.8652C570.647 92.5873 567.678 91.8652 566.351 89.6626" stroke="#CE0E47" stroke-width="2" stroke-linecap="round" stroke-linejoin="round"/>
<path d="M625.711 77.206C628.337 77.5067 630.849 78.4432 633.031 79.9344C635.213 81.4255 636.998 83.4263 638.231 85.7633C639.134 87.5235 639.73 89.4733 640.939 91.0078C643.124 93.7158 646.834 94.5553 650.291 94.8081C653.748 95.0608 657.323 94.8893 660.536 96.1711C663.75 97.4529 666.53 100.784 665.727 104.151" stroke="#CE0E47" stroke-width="2" stroke-linecap="round" stroke-linejoin="round"/>
<path d="M601.338 76.1768C596.34 76.5729 591.586 78.5007 587.723 81.6976C583.861 84.8944 581.078 89.2047 579.755 94.0407C579.16 96.3606 578.853 98.879 577.399 100.757C574.935 103.889 570.322 103.988 566.63 105.487C559.698 108.285 556.087 117.438 559.31 124.226" stroke="#CE0E47" stroke-width="2" stroke-linecap="round" stroke-linejoin="round"/>
<path d="M656.635 149.943C656.437 145.872 653.864 142.216 650.615 139.752C647.365 137.288 635.152 135.365 631.081 135.365C618.696 135.365 610.509 127.44 601.293 130.951C596.572 132.757 601.879 137.55 602.105 142.605C602.349 148.093 607.611 151.875 612.558 154.258C619.779 157.724 627.624 160.089 635.612 160.089C643.601 160.089 651.77 157.553 656.635 149.943Z" fill="#EDC798"/>
<path d="M530.289 264.751C504.719 243.577 481.496 219.024 461.118 191.617C451.055 206.229 434.964 213.477 419.813 220.599C404.662 227.722 388.763 236.243 380.324 252.094C378.007 256.453 376.176 261.441 372.466 264.32C369.814 266.383 366.542 267.092 363.373 267.747L340.993 272.402C336.455 273.344 330.874 273.855 328 268.814C339.186 263.979 350.523 259.046 360.101 250.945C372.593 240.37 381.207 225.183 390.769 211.261C402.878 193.637 416.802 177.696 432.249 163.773C438.619 158.005 445.864 152.363 454.064 152.067C459.932 151.861 465.585 154.453 470.784 157.521C513.259 182.575 535.759 239.365 578.942 262.831C562.159 271.057 541.555 274.071 530.289 264.751Z" fill="#EDC798"/>
<path d="M628.589 259.102C628.589 259.102 583.443 270.942 561.544 269.65C552.537 269.117 543.491 264.29 535.897 258.749C521.791 248.455 516.525 234.906 510.433 217.172C505.945 204.067 499.766 188.548 492.164 177.457C484.913 197.261 482.832 206.941 466.406 217.462C453.856 225.497 431.251 247.18 420.552 258.442C416.652 262.546 422.244 267.011 417.232 269.017C407.892 272.759 394.993 273.916 380.942 273.916C376.732 266.315 396.263 262.763 404.572 256.68C409.258 253.245 412.562 247.894 415.731 242.679C434.397 212.002 453.052 181.338 471.696 150.685C475.508 144.431 479.805 137.76 486.223 135.618C495.191 132.626 504.174 139.595 511.441 146.275C524.055 157.871 536.398 169.829 548.772 181.787L628.589 259.102Z" fill="#EDC798"/>
<path d="M530.291 265.056C504.656 243.825 481.375 219.205 460.945 191.724C450.856 206.376 434.725 213.643 419.535 220.785C404.346 227.927 388.406 236.472 379.946 252.365C379.73 244.738 373.377 242.084 367.717 243.28C376.202 233.71 383.027 222.188 390.418 211.422C402.557 193.75 416.517 177.765 432.003 163.805C438.388 158.021 445.652 152.364 453.873 152.067C459.756 151.86 465.423 154.46 470.635 157.536C513.218 182.657 552.8 242.435 596.093 265.965C579.276 274.213 541.585 274.402 530.291 265.056Z" fill="#E9763C"/>
<path d="M628.589 258.783C628.589 258.783 583.406 273.302 561.49 272.012C552.476 271.48 541.408 271.318 533.809 265.792C519.691 255.524 502.896 245.116 496.799 227.428C492.308 214.356 489.513 213.215 481.905 202.154C481.905 206.667 482.714 206.756 466.275 217.25C453.715 225.265 431.092 246.892 420.384 258.125C423.357 248.903 420.344 241.69 415.559 242.403C434.24 211.805 452.91 181.219 471.569 150.645C475.385 144.406 479.685 137.753 486.108 135.616C495.083 132.632 504.073 139.583 511.347 146.245C523.97 157.812 536.323 169.739 548.708 181.667C559.837 192.395 557.961 201.96 568.962 212.58C584.503 227.581 612.906 243.638 628.581 258.783H628.589Z" fill="#E9763C"/>
<path d="M619.401 144.392C627.219 146.838 645.723 138.533 653.856 139.472C661.99 140.411 670.836 144.175 673.526 151.911C675.132 156.523 674.203 161.596 673.147 166.354C667.202 193.372 658.003 219.569 645.75 244.371C642.501 250.952 628.455 264.23 615.177 264.23C609.761 264.23 606.71 253.804 603.641 249.156C595.977 237.565 582.726 229.297 561.053 212.552C557 209.42 542.765 195.699 541.004 190.888C539.019 185.472 540.625 179.406 542.909 174.108C549.905 157.859 577.328 137.847 593.63 130.915C609.932 123.982 604.074 139.598 619.401 144.392Z" fill="#F2B53D"/>
<path d="M636.426 237.295C618.228 230.01 572.995 209.312 567.417 204.401C561.838 199.491 557.93 192.026 558.173 184.66" stroke="#EB862A" stroke-width="2" stroke-linecap="round" stroke-linejoin="round"/>
<path d="M634.675 167.347L633.204 201.955C633.204 202.758 633.041 203.76 632.301 204.067C632.004 204.164 631.69 204.198 631.38 204.166C631.069 204.135 630.768 204.04 630.496 203.887L600.482 192.152" stroke="#EB862A" stroke-width="2" stroke-linecap="round" stroke-linejoin="round"/>
<path d="M584.974 154.763C580.269 163.816 577.138 173.602 575.712 183.703" stroke="#EB862A" stroke-width="2" stroke-linecap="round" stroke-linejoin="round"/>
<path d="M570.079 269.863C560.764 273.871 540.435 273.609 528.953 265.061C499.996 243.496 499.507 230.588 485.064 200.348" stroke="#E35A32" stroke-width="2" stroke-linecap="round" stroke-linejoin="round"/>
<path d="M493.188 177.33C493.188 194.747 482.069 204.889 470.989 212.943C460.664 220.469 447.59 229.625 439.028 239.615" stroke="#E35A32" stroke-width="2" stroke-linecap="round" stroke-linejoin="round"/>
<path d="M465.206 161.082C453.259 183.749 447.508 191.929 435.418 210.729" stroke="#E35A32" stroke-width="2" stroke-linecap="round" stroke-linejoin="round"/>
<path d="M421.878 218.853C413.934 222.787 384.615 240.011 382.16 249.544" stroke="#E35A32" stroke-width="2" stroke-linecap="round" stroke-linejoin="round"/>
<path d="M510.206 126.284L493.958 103.781C519.964 168.556 509.222 148.192 535.165 187.846C527.772 166.661 510.206 126.284 510.206 126.284Z" fill="#BC6BBA"/>
<path d="M544.47 110.018L575.684 171.987C575.684 171.987 550.933 183.378 535.263 188.036C524.593 168.999 512.904 149.889 504.761 129.651C517.218 125.309 544.47 110.018 544.47 110.018Z" fill="#BC6BBA"/>
<path d="M562.514 200.962C552.251 197.685 546.573 196.99 541.004 190.934C537.655 187.323 535.182 181.726 537.826 175.588C539.388 171.977 535.281 167.708 535.182 164.431C539.198 158.771 538.169 174.135 551.213 182.403C553.572 181.614 555.881 180.683 558.127 179.614C558.127 179.614 558.191 184.299 558.127 185.31C557.604 193.461 558.922 195.682 562.514 200.962Z" fill="#EDC798"/>
<path d="M532.159 176.058C531.742 176.682 531.102 177.123 530.371 177.29C529.639 177.458 528.871 177.34 528.224 176.96" stroke="#8A2D87" stroke-width="2" stroke-linecap="round" stroke-linejoin="round"/>
<path d="M529.702 172.718C529.236 173.182 528.663 173.523 528.033 173.712C527.403 173.901 526.736 173.932 526.091 173.801" stroke="#8A2D87" stroke-width="2" stroke-linecap="round" stroke-linejoin="round"/>
<path d="M522.833 160.432C522.622 160.808 522.334 161.135 521.988 161.392C521.642 161.649 521.246 161.83 520.825 161.924C520.404 162.017 519.969 162.021 519.546 161.935C519.124 161.849 518.724 161.676 518.374 161.425" stroke="#8A2D87" stroke-width="2" stroke-linecap="round" stroke-linejoin="round"/>
<path d="M518.177 152.191C518.095 152.621 517.922 153.029 517.67 153.387C517.417 153.745 517.091 154.045 516.713 154.266C516.335 154.488 515.914 154.626 515.478 154.671C515.043 154.716 514.602 154.668 514.187 154.529" stroke="#8A2D87" stroke-width="2" stroke-linecap="round" stroke-linejoin="round"/>
<path d="M543.702 130.951C541.969 130.861 540.353 131.736 538.846 132.585L535.723 134.345C535.055 134.715 534.396 135.094 533.71 135.428C532.138 136.164 530.522 136.8 528.871 137.333L524.295 138.931C524.077 139.425 523.741 139.857 523.316 140.19C522.89 140.522 522.389 140.744 521.857 140.835" stroke="#8A2D87" stroke-width="2" stroke-linecap="round" stroke-linejoin="round"/>
<path d="M546.112 138.75L545.21 137.694L544.117 139.084C543.458 138.515 542.42 138.831 541.707 139.346C541.072 139.974 540.312 140.462 539.478 140.781C538.774 140.934 537.988 140.718 537.347 141.052C536.156 141.666 536.075 143.823 534.739 143.913C533.944 143.958 533.195 143.146 532.464 143.444C532.106 143.638 531.835 143.96 531.706 144.347C531.566 144.713 531.317 145.029 530.993 145.249C530.641 145.43 530.09 145.249 530.09 144.852L528.808 145.755" stroke="#8A2D87" stroke-width="2" stroke-linecap="round" stroke-linejoin="round"/>
<path d="M507.009 128.044L503.877 105.324" stroke="#8A2D87" stroke-width="2" stroke-linecap="round" stroke-linejoin="round"/>
<path d="M509.266 127.485C510.06 121.374 510.069 115.804 510.882 109.837" stroke="#8A2D87" stroke-width="2" stroke-linecap="round" stroke-linejoin="round"/>
<path d="M606.89 101.515C606.706 101.946 606.697 102.433 606.866 102.871C607.034 103.309 607.367 103.665 607.793 103.862C608.349 103.992 608.927 103.994 609.484 103.867C610.041 103.741 610.562 103.489 611.007 103.13" stroke="#B27F61" stroke-width="2" stroke-linecap="round" stroke-linejoin="round"/>
<path d="M555.348 180.165C554.448 180.413 553.61 180.843 552.883 181.428C552.519 181.719 552.086 181.911 551.626 181.985C551.166 182.06 550.694 182.014 550.257 181.853C549.895 181.619 549.588 181.311 549.354 180.95L541.808 171.643" stroke="#B27F61" stroke-width="2" stroke-linecap="round" stroke-linejoin="round"/>
<path d="M535.326 166.525C536.523 172.197 539.216 177.446 543.125 181.726" stroke="#B27F61" stroke-width="2" stroke-linecap="round" stroke-linejoin="round"/>
<path d="M537.826 175.579C537.416 176.417 537.223 177.345 537.266 178.278C537.308 179.21 537.585 180.117 538.07 180.914C539.057 182.494 540.309 183.892 541.771 185.048" stroke="#B27F61" stroke-width="2" stroke-linecap="round" stroke-linejoin="round"/>
<path d="M536.743 179.993C536.356 180.624 536.146 181.348 536.135 182.088C536.124 182.828 536.312 183.557 536.68 184.199C537.357 185.508 542.746 190.735 544.993 191.845" stroke="#B27F61" stroke-width="2" stroke-linecap="round" stroke-linejoin="round"/>
<path d="M336.124 268.5C335.163 268.779 334.317 269.264 333.68 269.901C333.043 270.538 332.639 271.303 332.513 272.111" stroke="#B27F61" stroke-width="2" stroke-linecap="round" stroke-linejoin="round"/>
<path d="M331.611 266.695C330.955 266.829 330.351 267.155 329.871 267.636C329.39 268.116 329.054 268.73 328.903 269.403" stroke="#B27F61" stroke-width="2" stroke-linecap="round" stroke-linejoin="round"/>
<path d="M392.992 266.695C391.857 267.372 391.01 268.36 390.587 269.504C390.163 270.647 390.185 271.882 390.65 273.013" stroke="#B27F61" stroke-width="2" stroke-linecap="round" stroke-linejoin="round"/>
<path d="M386.673 268.5C386.234 269.104 385.941 269.846 385.825 270.643C385.71 271.44 385.778 272.261 386.021 273.013" stroke="#B27F61" stroke-width="2" stroke-linecap="round" stroke-linejoin="round"/>
<path d="M341.356 271.372C341.511 271.709 341.57 272.094 341.525 272.472C341.48 272.851 341.333 273.203 341.106 273.478C340.828 273.726 340.496 273.875 340.148 273.909C339.799 273.942 339.45 273.859 339.142 273.667C338.806 273.49 338.517 273.211 338.303 272.861C338.09 272.51 337.961 272.1 337.929 271.671C337.935 271.485 337.972 271.301 338.038 271.131C338.105 270.961 338.2 270.808 338.318 270.681C338.436 270.554 338.574 270.455 338.725 270.391C338.875 270.327 339.036 270.298 339.196 270.307L339.115 270.394" stroke="#B27F61" stroke-width="2" stroke-linecap="round" stroke-linejoin="round"/>
<path d="M383.049 271.706C383.099 272.138 383.012 272.574 382.799 272.954C382.587 273.333 382.259 273.636 381.863 273.82C381.414 273.95 380.936 273.948 380.487 273.815C380.038 273.683 379.637 273.426 379.33 273.074C378.989 272.722 378.748 272.288 378.63 271.814C378.513 271.34 378.523 270.843 378.661 270.375C378.746 270.18 378.87 270.003 379.024 269.856C379.178 269.708 379.359 269.592 379.559 269.515C379.758 269.437 379.97 269.399 380.184 269.403C380.398 269.407 380.609 269.453 380.805 269.538L380.669 269.592" stroke="#B27F61" stroke-width="2" stroke-linecap="round" stroke-linejoin="round"/>
</svg>
